M48
;DRILL file {KiCad 4.0.3-stable} date 09/19/16 00:05:00
;FORMAT={2:4/ absolute / inch / suppress leading zeros}
FMAT,2
INCH,TZ
T1C0.012
T2C0.031
%
G90
G05
M72
T1
X40000Y-43000
X40000Y-43500
X40000Y-43800
X40000Y-44100
X40000Y-44400
X40000Y-44700
X40300Y-43000
X40600Y-43000
X40900Y-43000
X41750Y-45000
X43583Y-45197
X44600Y-42950
X44626Y-45177
X45020Y-44272
X45157Y-44843
X45197Y-43228
X45413Y-45020
X46350Y-44750
X48400Y-43225
X48858Y-44409
X49213Y-44409
X49449Y-43268
X49764Y-43268
X49882Y-44685
X50079Y-43228
X50118Y-44921
X51555Y-45276
X51624Y-42924
X52559Y-44173
X52795Y-45039
X53386Y-43071
X53740Y-44907
X53858Y-44055
X53898Y-43071
X54882Y-44055
X55000Y-43110
X55906Y-43091
X55945Y-45276
X56929Y-45276
X57244Y-45276
X57559Y-45276
T2
X38780Y-43130
X38780Y-45059
T0
M30
