G04 #@! TF.FileFunction,Legend,Top*
%FSLAX46Y46*%
G04 Gerber Fmt 4.6, Leading zero omitted, Abs format (unit mm)*
G04 Created by KiCad (PCBNEW 4.0.3-stable) date 09/19/16 00:04:08*
%MOMM*%
%LPD*%
G01*
G04 APERTURE LIST*
%ADD10C,0.100000*%
%ADD11C,0.125000*%
%ADD12C,0.150000*%
G04 APERTURE END LIST*
D10*
D11*
X100654762Y-114126190D02*
X100488095Y-113888095D01*
X100369048Y-114126190D02*
X100369048Y-113626190D01*
X100559524Y-113626190D01*
X100607143Y-113650000D01*
X100630952Y-113673810D01*
X100654762Y-113721429D01*
X100654762Y-113792857D01*
X100630952Y-113840476D01*
X100607143Y-113864286D01*
X100559524Y-113888095D01*
X100369048Y-113888095D01*
X100357143Y-109926190D02*
X100642857Y-109926190D01*
X100500000Y-110426190D02*
X100500000Y-109926190D01*
D10*
X101419000Y-111695238D02*
X101438048Y-111657143D01*
X101438048Y-111600000D01*
X101419000Y-111542857D01*
X101380905Y-111504762D01*
X101342810Y-111485714D01*
X101266619Y-111466666D01*
X101209476Y-111466666D01*
X101133286Y-111485714D01*
X101095190Y-111504762D01*
X101057095Y-111542857D01*
X101038048Y-111600000D01*
X101038048Y-111638095D01*
X101057095Y-111695238D01*
X101076143Y-111714286D01*
X101209476Y-111714286D01*
X101209476Y-111638095D01*
X101038048Y-111885714D02*
X101438048Y-111885714D01*
X101038048Y-112114286D01*
X101438048Y-112114286D01*
X101038048Y-112304762D02*
X101438048Y-112304762D01*
X101438048Y-112400000D01*
X101419000Y-112457143D01*
X101380905Y-112495238D01*
X101342810Y-112514286D01*
X101266619Y-112533334D01*
X101209476Y-112533334D01*
X101133286Y-112514286D01*
X101095190Y-112495238D01*
X101057095Y-112457143D01*
X101038048Y-112400000D01*
X101038048Y-112304762D01*
D11*
X137819047Y-114250000D02*
X137771428Y-114226190D01*
X137700000Y-114226190D01*
X137628571Y-114250000D01*
X137580952Y-114297619D01*
X137557143Y-114345238D01*
X137533333Y-114440476D01*
X137533333Y-114511905D01*
X137557143Y-114607143D01*
X137580952Y-114654762D01*
X137628571Y-114702381D01*
X137700000Y-114726190D01*
X137747619Y-114726190D01*
X137819047Y-114702381D01*
X137842857Y-114678571D01*
X137842857Y-114511905D01*
X137747619Y-114511905D01*
X138057143Y-114726190D02*
X138057143Y-114226190D01*
X138342857Y-114726190D01*
X138342857Y-114226190D01*
X138580953Y-114726190D02*
X138580953Y-114226190D01*
X138700000Y-114226190D01*
X138771429Y-114250000D01*
X138819048Y-114297619D01*
X138842857Y-114345238D01*
X138866667Y-114440476D01*
X138866667Y-114511905D01*
X138842857Y-114607143D01*
X138819048Y-114654762D01*
X138771429Y-114702381D01*
X138700000Y-114726190D01*
X138580953Y-114726190D01*
X142419049Y-114535714D02*
X142800001Y-114535714D01*
X142609525Y-114726190D02*
X142609525Y-114345238D01*
X142990478Y-114226190D02*
X143300001Y-114226190D01*
X143133335Y-114416667D01*
X143204763Y-114416667D01*
X143252382Y-114440476D01*
X143276192Y-114464286D01*
X143300001Y-114511905D01*
X143300001Y-114630952D01*
X143276192Y-114678571D01*
X143252382Y-114702381D01*
X143204763Y-114726190D01*
X143061906Y-114726190D01*
X143014287Y-114702381D01*
X142990478Y-114678571D01*
X143442858Y-114226190D02*
X143609525Y-114726190D01*
X143776191Y-114226190D01*
X143895239Y-114226190D02*
X144204762Y-114226190D01*
X144038096Y-114416667D01*
X144109524Y-114416667D01*
X144157143Y-114440476D01*
X144180953Y-114464286D01*
X144204762Y-114511905D01*
X144204762Y-114630952D01*
X144180953Y-114678571D01*
X144157143Y-114702381D01*
X144109524Y-114726190D01*
X143966667Y-114726190D01*
X143919048Y-114702381D01*
X143895239Y-114678571D01*
X140014286Y-114726190D02*
X140014286Y-114226190D01*
X140180952Y-114583333D01*
X140347619Y-114226190D01*
X140347619Y-114726190D01*
X140585715Y-114726190D02*
X140585715Y-114226190D01*
X140800000Y-114702381D02*
X140871429Y-114726190D01*
X140990476Y-114726190D01*
X141038095Y-114702381D01*
X141061905Y-114678571D01*
X141085714Y-114630952D01*
X141085714Y-114583333D01*
X141061905Y-114535714D01*
X141038095Y-114511905D01*
X140990476Y-114488095D01*
X140895238Y-114464286D01*
X140847619Y-114440476D01*
X140823810Y-114416667D01*
X140800000Y-114369048D01*
X140800000Y-114321429D01*
X140823810Y-114273810D01*
X140847619Y-114250000D01*
X140895238Y-114226190D01*
X141014286Y-114226190D01*
X141085714Y-114250000D01*
X141395238Y-114226190D02*
X141490476Y-114226190D01*
X141538095Y-114250000D01*
X141585714Y-114297619D01*
X141609523Y-114392857D01*
X141609523Y-114559524D01*
X141585714Y-114654762D01*
X141538095Y-114702381D01*
X141490476Y-114726190D01*
X141395238Y-114726190D01*
X141347619Y-114702381D01*
X141300000Y-114654762D01*
X141276190Y-114559524D01*
X141276190Y-114392857D01*
X141300000Y-114297619D01*
X141347619Y-114250000D01*
X141395238Y-114226190D01*
X142514286Y-109726190D02*
X142514286Y-109226190D01*
X142680952Y-109583333D01*
X142847619Y-109226190D01*
X142847619Y-109726190D01*
X143085715Y-109726190D02*
X143085715Y-109226190D01*
X143300000Y-109702381D02*
X143371429Y-109726190D01*
X143490476Y-109726190D01*
X143538095Y-109702381D01*
X143561905Y-109678571D01*
X143585714Y-109630952D01*
X143585714Y-109583333D01*
X143561905Y-109535714D01*
X143538095Y-109511905D01*
X143490476Y-109488095D01*
X143395238Y-109464286D01*
X143347619Y-109440476D01*
X143323810Y-109416667D01*
X143300000Y-109369048D01*
X143300000Y-109321429D01*
X143323810Y-109273810D01*
X143347619Y-109250000D01*
X143395238Y-109226190D01*
X143514286Y-109226190D01*
X143585714Y-109250000D01*
X143895238Y-109226190D02*
X143990476Y-109226190D01*
X144038095Y-109250000D01*
X144085714Y-109297619D01*
X144109523Y-109392857D01*
X144109523Y-109559524D01*
X144085714Y-109654762D01*
X144038095Y-109702381D01*
X143990476Y-109726190D01*
X143895238Y-109726190D01*
X143847619Y-109702381D01*
X143800000Y-109654762D01*
X143776190Y-109559524D01*
X143776190Y-109392857D01*
X143800000Y-109297619D01*
X143847619Y-109250000D01*
X143895238Y-109226190D01*
X140157143Y-109702381D02*
X140228572Y-109726190D01*
X140347619Y-109726190D01*
X140395238Y-109702381D01*
X140419048Y-109678571D01*
X140442857Y-109630952D01*
X140442857Y-109583333D01*
X140419048Y-109535714D01*
X140395238Y-109511905D01*
X140347619Y-109488095D01*
X140252381Y-109464286D01*
X140204762Y-109440476D01*
X140180953Y-109416667D01*
X140157143Y-109369048D01*
X140157143Y-109321429D01*
X140180953Y-109273810D01*
X140204762Y-109250000D01*
X140252381Y-109226190D01*
X140371429Y-109226190D01*
X140442857Y-109250000D01*
X140942857Y-109678571D02*
X140919047Y-109702381D01*
X140847619Y-109726190D01*
X140800000Y-109726190D01*
X140728571Y-109702381D01*
X140680952Y-109654762D01*
X140657143Y-109607143D01*
X140633333Y-109511905D01*
X140633333Y-109440476D01*
X140657143Y-109345238D01*
X140680952Y-109297619D01*
X140728571Y-109250000D01*
X140800000Y-109226190D01*
X140847619Y-109226190D01*
X140919047Y-109250000D01*
X140942857Y-109273810D01*
X141157143Y-109726190D02*
X141157143Y-109226190D01*
X141442857Y-109726190D02*
X141228571Y-109440476D01*
X141442857Y-109226190D02*
X141157143Y-109511905D01*
D10*
X137619048Y-109680952D02*
X137485714Y-109490476D01*
X137390476Y-109680952D02*
X137390476Y-109280952D01*
X137542857Y-109280952D01*
X137580952Y-109300000D01*
X137600000Y-109319048D01*
X137619048Y-109357143D01*
X137619048Y-109414286D01*
X137600000Y-109452381D01*
X137580952Y-109471429D01*
X137542857Y-109490476D01*
X137390476Y-109490476D01*
X137790476Y-109471429D02*
X137923809Y-109471429D01*
X137980952Y-109680952D02*
X137790476Y-109680952D01*
X137790476Y-109280952D01*
X137980952Y-109280952D01*
X138133333Y-109661905D02*
X138190476Y-109680952D01*
X138285714Y-109680952D01*
X138323810Y-109661905D01*
X138342857Y-109642857D01*
X138361905Y-109604762D01*
X138361905Y-109566667D01*
X138342857Y-109528571D01*
X138323810Y-109509524D01*
X138285714Y-109490476D01*
X138209524Y-109471429D01*
X138171429Y-109452381D01*
X138152381Y-109433333D01*
X138133333Y-109395238D01*
X138133333Y-109357143D01*
X138152381Y-109319048D01*
X138171429Y-109300000D01*
X138209524Y-109280952D01*
X138304762Y-109280952D01*
X138361905Y-109300000D01*
X138533333Y-109471429D02*
X138666666Y-109471429D01*
X138723809Y-109680952D02*
X138533333Y-109680952D01*
X138533333Y-109280952D01*
X138723809Y-109280952D01*
X138838095Y-109280952D02*
X139066667Y-109280952D01*
X138952381Y-109680952D02*
X138952381Y-109280952D01*
D11*
X144252190Y-112394952D02*
X144252190Y-112109238D01*
X144752190Y-112252095D02*
X144252190Y-112252095D01*
X144252190Y-111990190D02*
X144752190Y-111656857D01*
X144252190Y-111656857D02*
X144752190Y-111990190D01*
X145019049Y-114462714D02*
X145400001Y-114462714D01*
X145209525Y-114653190D02*
X145209525Y-114272238D01*
X145590478Y-114153190D02*
X145900001Y-114153190D01*
X145733335Y-114343667D01*
X145804763Y-114343667D01*
X145852382Y-114367476D01*
X145876192Y-114391286D01*
X145900001Y-114438905D01*
X145900001Y-114557952D01*
X145876192Y-114605571D01*
X145852382Y-114629381D01*
X145804763Y-114653190D01*
X145661906Y-114653190D01*
X145614287Y-114629381D01*
X145590478Y-114605571D01*
X146042858Y-114153190D02*
X146209525Y-114653190D01*
X146376191Y-114153190D01*
X146495239Y-114153190D02*
X146804762Y-114153190D01*
X146638096Y-114343667D01*
X146709524Y-114343667D01*
X146757143Y-114367476D01*
X146780953Y-114391286D01*
X146804762Y-114438905D01*
X146804762Y-114557952D01*
X146780953Y-114605571D01*
X146757143Y-114629381D01*
X146709524Y-114653190D01*
X146566667Y-114653190D01*
X146519048Y-114629381D01*
X146495239Y-114605571D01*
X145816667Y-109826190D02*
X145650000Y-109588095D01*
X145530953Y-109826190D02*
X145530953Y-109326190D01*
X145721429Y-109326190D01*
X145769048Y-109350000D01*
X145792857Y-109373810D01*
X145816667Y-109421429D01*
X145816667Y-109492857D01*
X145792857Y-109540476D01*
X145769048Y-109564286D01*
X145721429Y-109588095D01*
X145530953Y-109588095D01*
X145983334Y-109326190D02*
X146316667Y-109826190D01*
X146316667Y-109326190D02*
X145983334Y-109826190D01*
D12*
X116850000Y-112225000D02*
X116350000Y-112225000D01*
X116350000Y-113175000D02*
X116850000Y-113175000D01*
X123182843Y-109800000D02*
G75*
G03X123182843Y-109800000I-282843J0D01*
G01*
X122200000Y-114000000D02*
X122700000Y-114000000D01*
X122700000Y-114000000D02*
X122700000Y-113500000D01*
X118700000Y-113500000D02*
X118700000Y-114000000D01*
X118700000Y-114000000D02*
X119200000Y-114000000D01*
X119200000Y-110000000D02*
X118700000Y-110000000D01*
X118700000Y-110000000D02*
X118700000Y-110400000D01*
X118700000Y-110400000D02*
X118700000Y-110500000D01*
X122700000Y-110000000D02*
X122200000Y-110000000D01*
X122700000Y-110000000D02*
X122700000Y-110500000D01*
X129953553Y-114687006D02*
X129600000Y-115040559D01*
X129600000Y-115040559D02*
X129246447Y-114687006D01*
X129600000Y-115040559D02*
X129953553Y-114687006D01*
X132251650Y-111611091D02*
X132640559Y-112000000D01*
X132640559Y-112000000D02*
X132287006Y-112353553D01*
X129246447Y-109312994D02*
X129600000Y-108959441D01*
X129600000Y-108959441D02*
X129953553Y-109312994D01*
X126559441Y-112000000D02*
X126912994Y-111646447D01*
X112650000Y-112525000D02*
X113150000Y-112525000D01*
X113150000Y-111475000D02*
X112650000Y-111475000D01*
X112650000Y-111025000D02*
X113150000Y-111025000D01*
X113150000Y-109975000D02*
X112650000Y-109975000D01*
X112650000Y-114025000D02*
X113150000Y-114025000D01*
X113150000Y-112975000D02*
X112650000Y-112975000D01*
X123575000Y-111150000D02*
X123575000Y-111650000D01*
X124625000Y-111650000D02*
X124625000Y-111150000D01*
X124625000Y-109750000D02*
X124625000Y-109250000D01*
X123575000Y-109250000D02*
X123575000Y-109750000D01*
X124350000Y-114175000D02*
X124850000Y-114175000D01*
X124850000Y-113225000D02*
X124350000Y-113225000D01*
X116850000Y-110775000D02*
X116350000Y-110775000D01*
X116350000Y-111725000D02*
X116850000Y-111725000D01*
X116850000Y-109375000D02*
X116350000Y-109375000D01*
X116350000Y-110325000D02*
X116850000Y-110325000D01*
X134250000Y-109425000D02*
X133750000Y-109425000D01*
X133750000Y-110375000D02*
X134250000Y-110375000D01*
X134250000Y-110625000D02*
X133750000Y-110625000D01*
X133750000Y-111575000D02*
X134250000Y-111575000D01*
X111800000Y-110100000D02*
X112000000Y-110100000D01*
X112000000Y-110100000D02*
X112000000Y-113700000D01*
X112000000Y-113700000D02*
X111800000Y-113700000D01*
X109000000Y-110100000D02*
X108800000Y-110100000D01*
X108800000Y-110100000D02*
X108800000Y-113500000D01*
X108800000Y-113500000D02*
X109000000Y-113700000D01*
X136625000Y-110950000D02*
X136625000Y-110450000D01*
X135575000Y-110450000D02*
X135575000Y-110950000D01*
X134800000Y-113250000D02*
X136350000Y-113250000D01*
X134800000Y-112050000D02*
X136350000Y-112050000D01*
X102204500Y-111468000D02*
X102204500Y-111968000D01*
X103154500Y-111968000D02*
X103154500Y-111468000D01*
X105499000Y-109822000D02*
X105999000Y-109822000D01*
X105999000Y-108872000D02*
X105499000Y-108872000D01*
X104271000Y-115015500D02*
X104771000Y-115015500D01*
X104771000Y-113965500D02*
X104271000Y-113965500D01*
X103204500Y-114232500D02*
X103204500Y-113732500D01*
X102154500Y-113732500D02*
X102154500Y-114232500D01*
X108475000Y-114296000D02*
X108475000Y-113796000D01*
X107425000Y-113796000D02*
X107425000Y-114296000D01*
X108475000Y-112137000D02*
X108475000Y-111637000D01*
X107425000Y-111637000D02*
X107425000Y-112137000D01*
X108525000Y-110000000D02*
X108525000Y-109500000D01*
X107475000Y-109500000D02*
X107475000Y-110000000D01*
X105146500Y-110314000D02*
G75*
G03X105146500Y-110314000I-100000J0D01*
G01*
X105596500Y-110564000D02*
X105096500Y-110564000D01*
X105596500Y-113464000D02*
X105596500Y-110564000D01*
X105096500Y-113464000D02*
X105596500Y-113464000D01*
X105096500Y-110564000D02*
X105096500Y-113464000D01*
D11*
X114816667Y-112878571D02*
X114792857Y-112902381D01*
X114721429Y-112926190D01*
X114673810Y-112926190D01*
X114602381Y-112902381D01*
X114554762Y-112854762D01*
X114530953Y-112807143D01*
X114507143Y-112711905D01*
X114507143Y-112640476D01*
X114530953Y-112545238D01*
X114554762Y-112497619D01*
X114602381Y-112450000D01*
X114673810Y-112426190D01*
X114721429Y-112426190D01*
X114792857Y-112450000D01*
X114816667Y-112473810D01*
X115269048Y-112426190D02*
X115030953Y-112426190D01*
X115007143Y-112664286D01*
X115030953Y-112640476D01*
X115078572Y-112616667D01*
X115197619Y-112616667D01*
X115245238Y-112640476D01*
X115269048Y-112664286D01*
X115292857Y-112711905D01*
X115292857Y-112830952D01*
X115269048Y-112878571D01*
X115245238Y-112902381D01*
X115197619Y-112926190D01*
X115078572Y-112926190D01*
X115030953Y-112902381D01*
X115007143Y-112878571D01*
X120319048Y-111726190D02*
X120319048Y-112130952D01*
X120342857Y-112178571D01*
X120366667Y-112202381D01*
X120414286Y-112226190D01*
X120509524Y-112226190D01*
X120557143Y-112202381D01*
X120580952Y-112178571D01*
X120604762Y-112130952D01*
X120604762Y-111726190D01*
X120795239Y-111726190D02*
X121104762Y-111726190D01*
X120938096Y-111916667D01*
X121009524Y-111916667D01*
X121057143Y-111940476D01*
X121080953Y-111964286D01*
X121104762Y-112011905D01*
X121104762Y-112130952D01*
X121080953Y-112178571D01*
X121057143Y-112202381D01*
X121009524Y-112226190D01*
X120866667Y-112226190D01*
X120819048Y-112202381D01*
X120795239Y-112178571D01*
X126237013Y-110775761D02*
X126523223Y-111061971D01*
X126573731Y-111078807D01*
X126607403Y-111078807D01*
X126657910Y-111061971D01*
X126725254Y-110994627D01*
X126742090Y-110944120D01*
X126742089Y-110910448D01*
X126725254Y-110859940D01*
X126439044Y-110573731D01*
X127146150Y-110573731D02*
X126944120Y-110775761D01*
X127045135Y-110674746D02*
X126691582Y-110321192D01*
X126708418Y-110405372D01*
X126708418Y-110472715D01*
X126691583Y-110523223D01*
X114316667Y-112226190D02*
X114150000Y-111988095D01*
X114030953Y-112226190D02*
X114030953Y-111726190D01*
X114221429Y-111726190D01*
X114269048Y-111750000D01*
X114292857Y-111773810D01*
X114316667Y-111821429D01*
X114316667Y-111892857D01*
X114292857Y-111940476D01*
X114269048Y-111964286D01*
X114221429Y-111988095D01*
X114030953Y-111988095D01*
X114745238Y-111726190D02*
X114650000Y-111726190D01*
X114602381Y-111750000D01*
X114578572Y-111773810D01*
X114530953Y-111845238D01*
X114507143Y-111940476D01*
X114507143Y-112130952D01*
X114530953Y-112178571D01*
X114554762Y-112202381D01*
X114602381Y-112226190D01*
X114697619Y-112226190D01*
X114745238Y-112202381D01*
X114769048Y-112178571D01*
X114792857Y-112130952D01*
X114792857Y-112011905D01*
X114769048Y-111964286D01*
X114745238Y-111940476D01*
X114697619Y-111916667D01*
X114602381Y-111916667D01*
X114554762Y-111940476D01*
X114530953Y-111964286D01*
X114507143Y-112011905D01*
X114316667Y-110726190D02*
X114150000Y-110488095D01*
X114030953Y-110726190D02*
X114030953Y-110226190D01*
X114221429Y-110226190D01*
X114269048Y-110250000D01*
X114292857Y-110273810D01*
X114316667Y-110321429D01*
X114316667Y-110392857D01*
X114292857Y-110440476D01*
X114269048Y-110464286D01*
X114221429Y-110488095D01*
X114030953Y-110488095D01*
X114769048Y-110226190D02*
X114530953Y-110226190D01*
X114507143Y-110464286D01*
X114530953Y-110440476D01*
X114578572Y-110416667D01*
X114697619Y-110416667D01*
X114745238Y-110440476D01*
X114769048Y-110464286D01*
X114792857Y-110511905D01*
X114792857Y-110630952D01*
X114769048Y-110678571D01*
X114745238Y-110702381D01*
X114697619Y-110726190D01*
X114578572Y-110726190D01*
X114530953Y-110702381D01*
X114507143Y-110678571D01*
X114316667Y-113726190D02*
X114150000Y-113488095D01*
X114030953Y-113726190D02*
X114030953Y-113226190D01*
X114221429Y-113226190D01*
X114269048Y-113250000D01*
X114292857Y-113273810D01*
X114316667Y-113321429D01*
X114316667Y-113392857D01*
X114292857Y-113440476D01*
X114269048Y-113464286D01*
X114221429Y-113488095D01*
X114030953Y-113488095D01*
X114745238Y-113392857D02*
X114745238Y-113726190D01*
X114626191Y-113202381D02*
X114507143Y-113559524D01*
X114816667Y-113559524D01*
X125316667Y-111626190D02*
X125150000Y-111388095D01*
X125030953Y-111626190D02*
X125030953Y-111126190D01*
X125221429Y-111126190D01*
X125269048Y-111150000D01*
X125292857Y-111173810D01*
X125316667Y-111221429D01*
X125316667Y-111292857D01*
X125292857Y-111340476D01*
X125269048Y-111364286D01*
X125221429Y-111388095D01*
X125030953Y-111388095D01*
X125483334Y-111126190D02*
X125792857Y-111126190D01*
X125626191Y-111316667D01*
X125697619Y-111316667D01*
X125745238Y-111340476D01*
X125769048Y-111364286D01*
X125792857Y-111411905D01*
X125792857Y-111530952D01*
X125769048Y-111578571D01*
X125745238Y-111602381D01*
X125697619Y-111626190D01*
X125554762Y-111626190D01*
X125507143Y-111602381D01*
X125483334Y-111578571D01*
X125316667Y-109726190D02*
X125150000Y-109488095D01*
X125030953Y-109726190D02*
X125030953Y-109226190D01*
X125221429Y-109226190D01*
X125269048Y-109250000D01*
X125292857Y-109273810D01*
X125316667Y-109321429D01*
X125316667Y-109392857D01*
X125292857Y-109440476D01*
X125269048Y-109464286D01*
X125221429Y-109488095D01*
X125030953Y-109488095D01*
X125507143Y-109273810D02*
X125530953Y-109250000D01*
X125578572Y-109226190D01*
X125697619Y-109226190D01*
X125745238Y-109250000D01*
X125769048Y-109273810D01*
X125792857Y-109321429D01*
X125792857Y-109369048D01*
X125769048Y-109440476D01*
X125483334Y-109726190D01*
X125792857Y-109726190D01*
X124516667Y-114978571D02*
X124492857Y-115002381D01*
X124421429Y-115026190D01*
X124373810Y-115026190D01*
X124302381Y-115002381D01*
X124254762Y-114954762D01*
X124230953Y-114907143D01*
X124207143Y-114811905D01*
X124207143Y-114740476D01*
X124230953Y-114645238D01*
X124254762Y-114597619D01*
X124302381Y-114550000D01*
X124373810Y-114526190D01*
X124421429Y-114526190D01*
X124492857Y-114550000D01*
X124516667Y-114573810D01*
X124683334Y-114526190D02*
X125016667Y-114526190D01*
X124802381Y-115026190D01*
X114816667Y-111478571D02*
X114792857Y-111502381D01*
X114721429Y-111526190D01*
X114673810Y-111526190D01*
X114602381Y-111502381D01*
X114554762Y-111454762D01*
X114530953Y-111407143D01*
X114507143Y-111311905D01*
X114507143Y-111240476D01*
X114530953Y-111145238D01*
X114554762Y-111097619D01*
X114602381Y-111050000D01*
X114673810Y-111026190D01*
X114721429Y-111026190D01*
X114792857Y-111050000D01*
X114816667Y-111073810D01*
X115245238Y-111026190D02*
X115150000Y-111026190D01*
X115102381Y-111050000D01*
X115078572Y-111073810D01*
X115030953Y-111145238D01*
X115007143Y-111240476D01*
X115007143Y-111430952D01*
X115030953Y-111478571D01*
X115054762Y-111502381D01*
X115102381Y-111526190D01*
X115197619Y-111526190D01*
X115245238Y-111502381D01*
X115269048Y-111478571D01*
X115292857Y-111430952D01*
X115292857Y-111311905D01*
X115269048Y-111264286D01*
X115245238Y-111240476D01*
X115197619Y-111216667D01*
X115102381Y-111216667D01*
X115054762Y-111240476D01*
X115030953Y-111264286D01*
X115007143Y-111311905D01*
X114816667Y-109978571D02*
X114792857Y-110002381D01*
X114721429Y-110026190D01*
X114673810Y-110026190D01*
X114602381Y-110002381D01*
X114554762Y-109954762D01*
X114530953Y-109907143D01*
X114507143Y-109811905D01*
X114507143Y-109740476D01*
X114530953Y-109645238D01*
X114554762Y-109597619D01*
X114602381Y-109550000D01*
X114673810Y-109526190D01*
X114721429Y-109526190D01*
X114792857Y-109550000D01*
X114816667Y-109573810D01*
X115245238Y-109692857D02*
X115245238Y-110026190D01*
X115126191Y-109502381D02*
X115007143Y-109859524D01*
X115316667Y-109859524D01*
X132216667Y-109578571D02*
X132192857Y-109602381D01*
X132121429Y-109626190D01*
X132073810Y-109626190D01*
X132002381Y-109602381D01*
X131954762Y-109554762D01*
X131930953Y-109507143D01*
X131907143Y-109411905D01*
X131907143Y-109340476D01*
X131930953Y-109245238D01*
X131954762Y-109197619D01*
X132002381Y-109150000D01*
X132073810Y-109126190D01*
X132121429Y-109126190D01*
X132192857Y-109150000D01*
X132216667Y-109173810D01*
X132407143Y-109173810D02*
X132430953Y-109150000D01*
X132478572Y-109126190D01*
X132597619Y-109126190D01*
X132645238Y-109150000D01*
X132669048Y-109173810D01*
X132692857Y-109221429D01*
X132692857Y-109269048D01*
X132669048Y-109340476D01*
X132383334Y-109626190D01*
X132692857Y-109626190D01*
X132216667Y-110378571D02*
X132192857Y-110402381D01*
X132121429Y-110426190D01*
X132073810Y-110426190D01*
X132002381Y-110402381D01*
X131954762Y-110354762D01*
X131930953Y-110307143D01*
X131907143Y-110211905D01*
X131907143Y-110140476D01*
X131930953Y-110045238D01*
X131954762Y-109997619D01*
X132002381Y-109950000D01*
X132073810Y-109926190D01*
X132121429Y-109926190D01*
X132192857Y-109950000D01*
X132216667Y-109973810D01*
X132692857Y-110426190D02*
X132407143Y-110426190D01*
X132550000Y-110426190D02*
X132550000Y-109926190D01*
X132502381Y-109997619D01*
X132454762Y-110045238D01*
X132407143Y-110069048D01*
X110030953Y-112126190D02*
X110030953Y-111626190D01*
X110150000Y-111626190D01*
X110221429Y-111650000D01*
X110269048Y-111697619D01*
X110292857Y-111745238D01*
X110316667Y-111840476D01*
X110316667Y-111911905D01*
X110292857Y-112007143D01*
X110269048Y-112054762D01*
X110221429Y-112102381D01*
X110150000Y-112126190D01*
X110030953Y-112126190D01*
X110792857Y-112126190D02*
X110507143Y-112126190D01*
X110650000Y-112126190D02*
X110650000Y-111626190D01*
X110602381Y-111697619D01*
X110554762Y-111745238D01*
X110507143Y-111769048D01*
X136306190Y-109283333D02*
X136068095Y-109450000D01*
X136306190Y-109569047D02*
X135806190Y-109569047D01*
X135806190Y-109378571D01*
X135830000Y-109330952D01*
X135853810Y-109307143D01*
X135901429Y-109283333D01*
X135972857Y-109283333D01*
X136020476Y-109307143D01*
X136044286Y-109330952D01*
X136068095Y-109378571D01*
X136068095Y-109569047D01*
X135806190Y-109116666D02*
X135806190Y-108783333D01*
X136306190Y-108997619D01*
X134885953Y-114018190D02*
X134885953Y-113518190D01*
X135005000Y-113518190D01*
X135076429Y-113542000D01*
X135124048Y-113589619D01*
X135147857Y-113637238D01*
X135171667Y-113732476D01*
X135171667Y-113803905D01*
X135147857Y-113899143D01*
X135124048Y-113946762D01*
X135076429Y-113994381D01*
X135005000Y-114018190D01*
X134885953Y-114018190D01*
X135362143Y-113565810D02*
X135385953Y-113542000D01*
X135433572Y-113518190D01*
X135552619Y-113518190D01*
X135600238Y-113542000D01*
X135624048Y-113565810D01*
X135647857Y-113613429D01*
X135647857Y-113661048D01*
X135624048Y-113732476D01*
X135338334Y-114018190D01*
X135647857Y-114018190D01*
X102532667Y-110414571D02*
X102508857Y-110438381D01*
X102437429Y-110462190D01*
X102389810Y-110462190D01*
X102318381Y-110438381D01*
X102270762Y-110390762D01*
X102246953Y-110343143D01*
X102223143Y-110247905D01*
X102223143Y-110176476D01*
X102246953Y-110081238D01*
X102270762Y-110033619D01*
X102318381Y-109986000D01*
X102389810Y-109962190D01*
X102437429Y-109962190D01*
X102508857Y-109986000D01*
X102532667Y-110009810D01*
X102699334Y-109962190D02*
X103008857Y-109962190D01*
X102842191Y-110152667D01*
X102913619Y-110152667D01*
X102961238Y-110176476D01*
X102985048Y-110200286D01*
X103008857Y-110247905D01*
X103008857Y-110366952D01*
X102985048Y-110414571D01*
X102961238Y-110438381D01*
X102913619Y-110462190D01*
X102770762Y-110462190D01*
X102723143Y-110438381D01*
X102699334Y-110414571D01*
X103929667Y-110033571D02*
X103905857Y-110057381D01*
X103834429Y-110081190D01*
X103786810Y-110081190D01*
X103715381Y-110057381D01*
X103667762Y-110009762D01*
X103643953Y-109962143D01*
X103620143Y-109866905D01*
X103620143Y-109795476D01*
X103643953Y-109700238D01*
X103667762Y-109652619D01*
X103715381Y-109605000D01*
X103786810Y-109581190D01*
X103834429Y-109581190D01*
X103905857Y-109605000D01*
X103929667Y-109628810D01*
X104215381Y-109795476D02*
X104167762Y-109771667D01*
X104143953Y-109747857D01*
X104120143Y-109700238D01*
X104120143Y-109676429D01*
X104143953Y-109628810D01*
X104167762Y-109605000D01*
X104215381Y-109581190D01*
X104310619Y-109581190D01*
X104358238Y-109605000D01*
X104382048Y-109628810D01*
X104405857Y-109676429D01*
X104405857Y-109700238D01*
X104382048Y-109747857D01*
X104358238Y-109771667D01*
X104310619Y-109795476D01*
X104215381Y-109795476D01*
X104167762Y-109819286D01*
X104143953Y-109843095D01*
X104120143Y-109890714D01*
X104120143Y-109985952D01*
X104143953Y-110033571D01*
X104167762Y-110057381D01*
X104215381Y-110081190D01*
X104310619Y-110081190D01*
X104358238Y-110057381D01*
X104382048Y-110033571D01*
X104405857Y-109985952D01*
X104405857Y-109890714D01*
X104382048Y-109843095D01*
X104358238Y-109819286D01*
X104310619Y-109795476D01*
X105961667Y-115161190D02*
X105795000Y-114923095D01*
X105675953Y-115161190D02*
X105675953Y-114661190D01*
X105866429Y-114661190D01*
X105914048Y-114685000D01*
X105937857Y-114708810D01*
X105961667Y-114756429D01*
X105961667Y-114827857D01*
X105937857Y-114875476D01*
X105914048Y-114899286D01*
X105866429Y-114923095D01*
X105675953Y-114923095D01*
X106437857Y-115161190D02*
X106152143Y-115161190D01*
X106295000Y-115161190D02*
X106295000Y-114661190D01*
X106247381Y-114732619D01*
X106199762Y-114780238D01*
X106152143Y-114804048D01*
X101826190Y-114637333D02*
X101588095Y-114804000D01*
X101826190Y-114923047D02*
X101326190Y-114923047D01*
X101326190Y-114732571D01*
X101350000Y-114684952D01*
X101373810Y-114661143D01*
X101421429Y-114637333D01*
X101492857Y-114637333D01*
X101540476Y-114661143D01*
X101564286Y-114684952D01*
X101588095Y-114732571D01*
X101588095Y-114923047D01*
X101540476Y-114351619D02*
X101516667Y-114399238D01*
X101492857Y-114423047D01*
X101445238Y-114446857D01*
X101421429Y-114446857D01*
X101373810Y-114423047D01*
X101350000Y-114399238D01*
X101326190Y-114351619D01*
X101326190Y-114256381D01*
X101350000Y-114208762D01*
X101373810Y-114184952D01*
X101421429Y-114161143D01*
X101445238Y-114161143D01*
X101492857Y-114184952D01*
X101516667Y-114208762D01*
X101540476Y-114256381D01*
X101540476Y-114351619D01*
X101564286Y-114399238D01*
X101588095Y-114423047D01*
X101635714Y-114446857D01*
X101730952Y-114446857D01*
X101778571Y-114423047D01*
X101802381Y-114399238D01*
X101826190Y-114351619D01*
X101826190Y-114256381D01*
X101802381Y-114208762D01*
X101778571Y-114184952D01*
X101730952Y-114161143D01*
X101635714Y-114161143D01*
X101588095Y-114184952D01*
X101564286Y-114208762D01*
X101540476Y-114256381D01*
X107160190Y-114764333D02*
X106922095Y-114931000D01*
X107160190Y-115050047D02*
X106660190Y-115050047D01*
X106660190Y-114859571D01*
X106684000Y-114811952D01*
X106707810Y-114788143D01*
X106755429Y-114764333D01*
X106826857Y-114764333D01*
X106874476Y-114788143D01*
X106898286Y-114811952D01*
X106922095Y-114859571D01*
X106922095Y-115050047D01*
X107160190Y-114526238D02*
X107160190Y-114431000D01*
X107136381Y-114383381D01*
X107112571Y-114359571D01*
X107041143Y-114311952D01*
X106945905Y-114288143D01*
X106755429Y-114288143D01*
X106707810Y-114311952D01*
X106684000Y-114335762D01*
X106660190Y-114383381D01*
X106660190Y-114478619D01*
X106684000Y-114526238D01*
X106707810Y-114550047D01*
X106755429Y-114573857D01*
X106874476Y-114573857D01*
X106922095Y-114550047D01*
X106945905Y-114526238D01*
X106969714Y-114478619D01*
X106969714Y-114383381D01*
X106945905Y-114335762D01*
X106922095Y-114311952D01*
X106874476Y-114288143D01*
X109152572Y-109319190D02*
X108985905Y-109081095D01*
X108866858Y-109319190D02*
X108866858Y-108819190D01*
X109057334Y-108819190D01*
X109104953Y-108843000D01*
X109128762Y-108866810D01*
X109152572Y-108914429D01*
X109152572Y-108985857D01*
X109128762Y-109033476D01*
X109104953Y-109057286D01*
X109057334Y-109081095D01*
X108866858Y-109081095D01*
X109628762Y-109319190D02*
X109343048Y-109319190D01*
X109485905Y-109319190D02*
X109485905Y-108819190D01*
X109438286Y-108890619D01*
X109390667Y-108938238D01*
X109343048Y-108962048D01*
X110104952Y-109319190D02*
X109819238Y-109319190D01*
X109962095Y-109319190D02*
X109962095Y-108819190D01*
X109914476Y-108890619D01*
X109866857Y-108938238D01*
X109819238Y-108962048D01*
X105918048Y-111740190D02*
X105918048Y-112144952D01*
X105941857Y-112192571D01*
X105965667Y-112216381D01*
X106013286Y-112240190D01*
X106108524Y-112240190D01*
X106156143Y-112216381D01*
X106179952Y-112192571D01*
X106203762Y-112144952D01*
X106203762Y-111740190D01*
X106418048Y-111787810D02*
X106441858Y-111764000D01*
X106489477Y-111740190D01*
X106608524Y-111740190D01*
X106656143Y-111764000D01*
X106679953Y-111787810D01*
X106703762Y-111835429D01*
X106703762Y-111883048D01*
X106679953Y-111954476D01*
X106394239Y-112240190D01*
X106703762Y-112240190D01*
M02*
