G04 #@! TF.FileFunction,Copper,L2,Inr,Plane*
%FSLAX46Y46*%
G04 Gerber Fmt 4.6, Leading zero omitted, Abs format (unit mm)*
G04 Created by KiCad (PCBNEW 4.0.3-stable) date 09/19/16 00:04:08*
%MOMM*%
%LPD*%
G01*
G04 APERTURE LIST*
%ADD10C,0.100000*%
%ADD11R,3.000000X1.900000*%
%ADD12C,0.600000*%
%ADD13C,0.250000*%
%ADD14C,0.254000*%
G04 APERTURE END LIST*
D10*
D11*
X98500000Y-109550000D03*
X98500000Y-114450000D03*
D12*
X142100000Y-115000000D03*
X133500000Y-112200000D03*
X114700000Y-113900000D03*
X124100000Y-112800000D03*
X110700000Y-114800000D03*
X126700000Y-113500000D03*
X101600000Y-113538000D03*
X101600000Y-112776000D03*
X101600000Y-112014000D03*
X101600000Y-111252000D03*
X101600000Y-110490000D03*
X122936000Y-109791500D03*
X106045000Y-114300000D03*
X136498857Y-114064952D03*
X135600000Y-109400000D03*
X144600000Y-115000000D03*
X145400000Y-115000000D03*
X146200000Y-115000000D03*
X127300000Y-114100000D03*
X114800000Y-109800000D03*
X134100000Y-114400000D03*
X139400000Y-111900000D03*
X136800000Y-111900000D03*
X127200000Y-109800000D03*
X103886000Y-109220000D03*
X103124000Y-109220000D03*
X102362000Y-109220000D03*
X101600000Y-109220000D03*
X136900000Y-109400000D03*
X139700000Y-109500000D03*
X126400000Y-109900000D03*
X142000000Y-109450000D03*
X125600000Y-109900000D03*
X113350000Y-114750000D03*
X115350000Y-114350000D03*
X130950000Y-115000000D03*
X114350000Y-112450000D03*
X117729000Y-113665000D03*
X125000000Y-112800000D03*
X131124215Y-109026215D03*
X113284000Y-109093000D03*
D13*
X101600000Y-113538000D02*
X101899999Y-113238001D01*
X101899999Y-113238001D02*
X104983001Y-113238001D01*
X104983001Y-113238001D02*
X105745001Y-114000001D01*
X105745001Y-114000001D02*
X106045000Y-114300000D01*
X101600000Y-112776000D02*
X101600000Y-113538000D01*
X101600000Y-111252000D02*
X101600000Y-112014000D01*
X121229000Y-110800000D02*
X121200000Y-110800000D01*
X117012999Y-112857001D02*
X117602000Y-112268000D01*
X117602000Y-112268000D02*
X119126000Y-112268000D01*
X114800000Y-109800000D02*
X110545000Y-109800000D01*
X110545000Y-109800000D02*
X106045000Y-114300000D01*
X121200000Y-112900000D02*
X121200000Y-112268000D01*
X121200000Y-112268000D02*
X121200000Y-110800000D01*
X119126000Y-112268000D02*
X121200000Y-112268000D01*
X122400000Y-114100000D02*
X127300000Y-114100000D01*
X136550000Y-113950000D02*
X136498857Y-114001143D01*
X136923121Y-114064952D02*
X136498857Y-114064952D01*
X143664952Y-114064952D02*
X136923121Y-114064952D01*
X144600000Y-115000000D02*
X143664952Y-114064952D01*
X136198858Y-113764953D02*
X136498857Y-114064952D01*
X136000000Y-113566095D02*
X136198858Y-113764953D01*
X136000000Y-113500000D02*
X136000000Y-113566095D01*
X136498857Y-114001143D02*
X136498857Y-114064952D01*
X136000000Y-113500000D02*
X135600000Y-113100000D01*
X135600000Y-109400000D02*
X135600000Y-112100000D01*
X135600000Y-113100000D02*
X135600000Y-112100000D01*
X127300000Y-114100000D02*
X127900000Y-113500000D01*
X127900000Y-113500000D02*
X136000000Y-113500000D01*
X120200000Y-109800000D02*
X114800000Y-109800000D01*
X121200000Y-110800000D02*
X120200000Y-109800000D01*
X122400000Y-114100000D02*
X121200000Y-112900000D01*
X146200000Y-115000000D02*
X145400000Y-115000000D01*
D14*
G36*
X112657109Y-108967735D02*
X112656891Y-109217171D01*
X112752145Y-109447703D01*
X112928369Y-109624235D01*
X113158735Y-109719891D01*
X113408171Y-109720109D01*
X113638703Y-109624855D01*
X113815235Y-109448631D01*
X113910891Y-109218265D01*
X113911109Y-108968829D01*
X113883496Y-108902000D01*
X130497323Y-108902000D01*
X130497106Y-109150386D01*
X130592360Y-109380918D01*
X130768584Y-109557450D01*
X130998950Y-109653106D01*
X131248386Y-109653324D01*
X131478918Y-109558070D01*
X131655450Y-109381846D01*
X131751106Y-109151480D01*
X131751324Y-108902044D01*
X131751306Y-108902000D01*
X136511383Y-108902000D01*
X136368765Y-109044369D01*
X136273109Y-109274735D01*
X136272891Y-109524171D01*
X136368145Y-109754703D01*
X136544369Y-109931235D01*
X136774735Y-110026891D01*
X137024171Y-110027109D01*
X137254703Y-109931855D01*
X137431235Y-109755631D01*
X137526891Y-109525265D01*
X137527109Y-109275829D01*
X137431855Y-109045297D01*
X137288808Y-108902000D01*
X139505380Y-108902000D01*
X139345297Y-108968145D01*
X139168765Y-109144369D01*
X139073109Y-109374735D01*
X139072891Y-109624171D01*
X139168145Y-109854703D01*
X139344369Y-110031235D01*
X139574735Y-110126891D01*
X139824171Y-110127109D01*
X140054703Y-110031855D01*
X140231235Y-109855631D01*
X140326891Y-109625265D01*
X140327109Y-109375829D01*
X140231855Y-109145297D01*
X140055631Y-108968765D01*
X139894842Y-108902000D01*
X141684371Y-108902000D01*
X141645297Y-108918145D01*
X141468765Y-109094369D01*
X141373109Y-109324735D01*
X141372891Y-109574171D01*
X141468145Y-109804703D01*
X141644369Y-109981235D01*
X141874735Y-110076891D01*
X142124171Y-110077109D01*
X142354703Y-109981855D01*
X142531235Y-109805631D01*
X142626891Y-109575265D01*
X142627109Y-109325829D01*
X142531855Y-109095297D01*
X142355631Y-108918765D01*
X142315256Y-108902000D01*
X146598000Y-108902000D01*
X146598000Y-115098000D01*
X142726915Y-115098000D01*
X142727109Y-114875829D01*
X142631855Y-114645297D01*
X142455631Y-114468765D01*
X142225265Y-114373109D01*
X141975829Y-114372891D01*
X141745297Y-114468145D01*
X141568765Y-114644369D01*
X141473109Y-114874735D01*
X141472914Y-115098000D01*
X131576915Y-115098000D01*
X131577109Y-114875829D01*
X131481855Y-114645297D01*
X131360941Y-114524171D01*
X133472891Y-114524171D01*
X133568145Y-114754703D01*
X133744369Y-114931235D01*
X133974735Y-115026891D01*
X134224171Y-115027109D01*
X134454703Y-114931855D01*
X134631235Y-114755631D01*
X134726891Y-114525265D01*
X134727109Y-114275829D01*
X134631855Y-114045297D01*
X134455631Y-113868765D01*
X134225265Y-113773109D01*
X133975829Y-113772891D01*
X133745297Y-113868145D01*
X133568765Y-114044369D01*
X133473109Y-114274735D01*
X133472891Y-114524171D01*
X131360941Y-114524171D01*
X131305631Y-114468765D01*
X131075265Y-114373109D01*
X130825829Y-114372891D01*
X130595297Y-114468145D01*
X130418765Y-114644369D01*
X130323109Y-114874735D01*
X130322914Y-115098000D01*
X113884404Y-115098000D01*
X113976891Y-114875265D01*
X113977109Y-114625829D01*
X113881855Y-114395297D01*
X113705631Y-114218765D01*
X113475265Y-114123109D01*
X113225829Y-114122891D01*
X112995297Y-114218145D01*
X112818765Y-114394369D01*
X112723109Y-114624735D01*
X112722891Y-114874171D01*
X112815375Y-115098000D01*
X111255165Y-115098000D01*
X111326891Y-114925265D01*
X111327109Y-114675829D01*
X111231855Y-114445297D01*
X111055631Y-114268765D01*
X110825265Y-114173109D01*
X110575829Y-114172891D01*
X110345297Y-114268145D01*
X110168765Y-114444369D01*
X110073109Y-114674735D01*
X110072891Y-114924171D01*
X110144716Y-115098000D01*
X101266514Y-115098000D01*
X100384257Y-114215743D01*
X100333406Y-114181765D01*
X100333406Y-114024171D01*
X114072891Y-114024171D01*
X114168145Y-114254703D01*
X114344369Y-114431235D01*
X114574735Y-114526891D01*
X114744736Y-114527040D01*
X114818145Y-114704703D01*
X114994369Y-114881235D01*
X115224735Y-114976891D01*
X115474171Y-114977109D01*
X115704703Y-114881855D01*
X115881235Y-114705631D01*
X115976891Y-114475265D01*
X115977109Y-114225829D01*
X115881855Y-113995297D01*
X115705631Y-113818765D01*
X115634361Y-113789171D01*
X117101891Y-113789171D01*
X117197145Y-114019703D01*
X117373369Y-114196235D01*
X117603735Y-114291891D01*
X117853171Y-114292109D01*
X118083703Y-114196855D01*
X118260235Y-114020631D01*
X118355891Y-113790265D01*
X118356036Y-113624171D01*
X126072891Y-113624171D01*
X126168145Y-113854703D01*
X126344369Y-114031235D01*
X126574735Y-114126891D01*
X126824171Y-114127109D01*
X127054703Y-114031855D01*
X127231235Y-113855631D01*
X127326891Y-113625265D01*
X127327109Y-113375829D01*
X127231855Y-113145297D01*
X127055631Y-112968765D01*
X126825265Y-112873109D01*
X126575829Y-112872891D01*
X126345297Y-112968145D01*
X126168765Y-113144369D01*
X126073109Y-113374735D01*
X126072891Y-113624171D01*
X118356036Y-113624171D01*
X118356109Y-113540829D01*
X118260855Y-113310297D01*
X118084631Y-113133765D01*
X117854265Y-113038109D01*
X117604829Y-113037891D01*
X117374297Y-113133145D01*
X117197765Y-113309369D01*
X117102109Y-113539735D01*
X117101891Y-113789171D01*
X115634361Y-113789171D01*
X115475265Y-113723109D01*
X115305264Y-113722960D01*
X115231855Y-113545297D01*
X115055631Y-113368765D01*
X114825265Y-113273109D01*
X114575829Y-113272891D01*
X114345297Y-113368145D01*
X114168765Y-113544369D01*
X114073109Y-113774735D01*
X114072891Y-114024171D01*
X100333406Y-114024171D01*
X100333406Y-113500000D01*
X100327000Y-113465954D01*
X100327000Y-112574171D01*
X113722891Y-112574171D01*
X113818145Y-112804703D01*
X113994369Y-112981235D01*
X114224735Y-113076891D01*
X114474171Y-113077109D01*
X114704703Y-112981855D01*
X114762487Y-112924171D01*
X123472891Y-112924171D01*
X123568145Y-113154703D01*
X123744369Y-113331235D01*
X123974735Y-113426891D01*
X124224171Y-113427109D01*
X124454703Y-113331855D01*
X124550012Y-113236713D01*
X124644369Y-113331235D01*
X124874735Y-113426891D01*
X125124171Y-113427109D01*
X125354703Y-113331855D01*
X125531235Y-113155631D01*
X125626891Y-112925265D01*
X125627109Y-112675829D01*
X125531855Y-112445297D01*
X125410941Y-112324171D01*
X132872891Y-112324171D01*
X132968145Y-112554703D01*
X133144369Y-112731235D01*
X133374735Y-112826891D01*
X133624171Y-112827109D01*
X133854703Y-112731855D01*
X134031235Y-112555631D01*
X134126891Y-112325265D01*
X134127109Y-112075829D01*
X134105765Y-112024171D01*
X136172891Y-112024171D01*
X136268145Y-112254703D01*
X136444369Y-112431235D01*
X136674735Y-112526891D01*
X136924171Y-112527109D01*
X137154703Y-112431855D01*
X137331235Y-112255631D01*
X137426891Y-112025265D01*
X137426891Y-112024171D01*
X138772891Y-112024171D01*
X138868145Y-112254703D01*
X139044369Y-112431235D01*
X139274735Y-112526891D01*
X139524171Y-112527109D01*
X139754703Y-112431855D01*
X139931235Y-112255631D01*
X140026891Y-112025265D01*
X140027109Y-111775829D01*
X139931855Y-111545297D01*
X139755631Y-111368765D01*
X139525265Y-111273109D01*
X139275829Y-111272891D01*
X139045297Y-111368145D01*
X138868765Y-111544369D01*
X138773109Y-111774735D01*
X138772891Y-112024171D01*
X137426891Y-112024171D01*
X137427109Y-111775829D01*
X137331855Y-111545297D01*
X137155631Y-111368765D01*
X136925265Y-111273109D01*
X136675829Y-111272891D01*
X136445297Y-111368145D01*
X136268765Y-111544369D01*
X136173109Y-111774735D01*
X136172891Y-112024171D01*
X134105765Y-112024171D01*
X134031855Y-111845297D01*
X133855631Y-111668765D01*
X133625265Y-111573109D01*
X133375829Y-111572891D01*
X133145297Y-111668145D01*
X132968765Y-111844369D01*
X132873109Y-112074735D01*
X132872891Y-112324171D01*
X125410941Y-112324171D01*
X125355631Y-112268765D01*
X125125265Y-112173109D01*
X124875829Y-112172891D01*
X124645297Y-112268145D01*
X124549988Y-112363287D01*
X124455631Y-112268765D01*
X124225265Y-112173109D01*
X123975829Y-112172891D01*
X123745297Y-112268145D01*
X123568765Y-112444369D01*
X123473109Y-112674735D01*
X123472891Y-112924171D01*
X114762487Y-112924171D01*
X114881235Y-112805631D01*
X114976891Y-112575265D01*
X114977109Y-112325829D01*
X114881855Y-112095297D01*
X114705631Y-111918765D01*
X114475265Y-111823109D01*
X114225829Y-111822891D01*
X113995297Y-111918145D01*
X113818765Y-112094369D01*
X113723109Y-112324735D01*
X113722891Y-112574171D01*
X100327000Y-112574171D01*
X100327000Y-110531633D01*
X100333406Y-110500000D01*
X100333406Y-110024171D01*
X124972891Y-110024171D01*
X125068145Y-110254703D01*
X125244369Y-110431235D01*
X125474735Y-110526891D01*
X125724171Y-110527109D01*
X125954703Y-110431855D01*
X125999924Y-110386713D01*
X126044369Y-110431235D01*
X126274735Y-110526891D01*
X126524171Y-110527109D01*
X126754703Y-110431855D01*
X126852229Y-110334499D01*
X127074735Y-110426891D01*
X127324171Y-110427109D01*
X127554703Y-110331855D01*
X127731235Y-110155631D01*
X127826891Y-109925265D01*
X127827109Y-109675829D01*
X127731855Y-109445297D01*
X127555631Y-109268765D01*
X127325265Y-109173109D01*
X127075829Y-109172891D01*
X126845297Y-109268145D01*
X126747771Y-109365501D01*
X126525265Y-109273109D01*
X126275829Y-109272891D01*
X126045297Y-109368145D01*
X126000076Y-109413287D01*
X125955631Y-109368765D01*
X125725265Y-109273109D01*
X125475829Y-109272891D01*
X125245297Y-109368145D01*
X125068765Y-109544369D01*
X124973109Y-109774735D01*
X124972891Y-110024171D01*
X100333406Y-110024171D01*
X100333406Y-109818235D01*
X100384257Y-109784257D01*
X100973021Y-109195493D01*
X100972891Y-109344171D01*
X101068145Y-109574703D01*
X101244369Y-109751235D01*
X101474735Y-109846891D01*
X101724171Y-109847109D01*
X101954703Y-109751855D01*
X101980891Y-109725713D01*
X102006369Y-109751235D01*
X102236735Y-109846891D01*
X102486171Y-109847109D01*
X102716703Y-109751855D01*
X102742891Y-109725713D01*
X102768369Y-109751235D01*
X102998735Y-109846891D01*
X103248171Y-109847109D01*
X103478703Y-109751855D01*
X103504891Y-109725713D01*
X103530369Y-109751235D01*
X103760735Y-109846891D01*
X104010171Y-109847109D01*
X104240703Y-109751855D01*
X104417235Y-109575631D01*
X104512891Y-109345265D01*
X104513109Y-109095829D01*
X104433020Y-108902000D01*
X112684404Y-108902000D01*
X112657109Y-108967735D01*
X112657109Y-108967735D01*
G37*
X112657109Y-108967735D02*
X112656891Y-109217171D01*
X112752145Y-109447703D01*
X112928369Y-109624235D01*
X113158735Y-109719891D01*
X113408171Y-109720109D01*
X113638703Y-109624855D01*
X113815235Y-109448631D01*
X113910891Y-109218265D01*
X113911109Y-108968829D01*
X113883496Y-108902000D01*
X130497323Y-108902000D01*
X130497106Y-109150386D01*
X130592360Y-109380918D01*
X130768584Y-109557450D01*
X130998950Y-109653106D01*
X131248386Y-109653324D01*
X131478918Y-109558070D01*
X131655450Y-109381846D01*
X131751106Y-109151480D01*
X131751324Y-108902044D01*
X131751306Y-108902000D01*
X136511383Y-108902000D01*
X136368765Y-109044369D01*
X136273109Y-109274735D01*
X136272891Y-109524171D01*
X136368145Y-109754703D01*
X136544369Y-109931235D01*
X136774735Y-110026891D01*
X137024171Y-110027109D01*
X137254703Y-109931855D01*
X137431235Y-109755631D01*
X137526891Y-109525265D01*
X137527109Y-109275829D01*
X137431855Y-109045297D01*
X137288808Y-108902000D01*
X139505380Y-108902000D01*
X139345297Y-108968145D01*
X139168765Y-109144369D01*
X139073109Y-109374735D01*
X139072891Y-109624171D01*
X139168145Y-109854703D01*
X139344369Y-110031235D01*
X139574735Y-110126891D01*
X139824171Y-110127109D01*
X140054703Y-110031855D01*
X140231235Y-109855631D01*
X140326891Y-109625265D01*
X140327109Y-109375829D01*
X140231855Y-109145297D01*
X140055631Y-108968765D01*
X139894842Y-108902000D01*
X141684371Y-108902000D01*
X141645297Y-108918145D01*
X141468765Y-109094369D01*
X141373109Y-109324735D01*
X141372891Y-109574171D01*
X141468145Y-109804703D01*
X141644369Y-109981235D01*
X141874735Y-110076891D01*
X142124171Y-110077109D01*
X142354703Y-109981855D01*
X142531235Y-109805631D01*
X142626891Y-109575265D01*
X142627109Y-109325829D01*
X142531855Y-109095297D01*
X142355631Y-108918765D01*
X142315256Y-108902000D01*
X146598000Y-108902000D01*
X146598000Y-115098000D01*
X142726915Y-115098000D01*
X142727109Y-114875829D01*
X142631855Y-114645297D01*
X142455631Y-114468765D01*
X142225265Y-114373109D01*
X141975829Y-114372891D01*
X141745297Y-114468145D01*
X141568765Y-114644369D01*
X141473109Y-114874735D01*
X141472914Y-115098000D01*
X131576915Y-115098000D01*
X131577109Y-114875829D01*
X131481855Y-114645297D01*
X131360941Y-114524171D01*
X133472891Y-114524171D01*
X133568145Y-114754703D01*
X133744369Y-114931235D01*
X133974735Y-115026891D01*
X134224171Y-115027109D01*
X134454703Y-114931855D01*
X134631235Y-114755631D01*
X134726891Y-114525265D01*
X134727109Y-114275829D01*
X134631855Y-114045297D01*
X134455631Y-113868765D01*
X134225265Y-113773109D01*
X133975829Y-113772891D01*
X133745297Y-113868145D01*
X133568765Y-114044369D01*
X133473109Y-114274735D01*
X133472891Y-114524171D01*
X131360941Y-114524171D01*
X131305631Y-114468765D01*
X131075265Y-114373109D01*
X130825829Y-114372891D01*
X130595297Y-114468145D01*
X130418765Y-114644369D01*
X130323109Y-114874735D01*
X130322914Y-115098000D01*
X113884404Y-115098000D01*
X113976891Y-114875265D01*
X113977109Y-114625829D01*
X113881855Y-114395297D01*
X113705631Y-114218765D01*
X113475265Y-114123109D01*
X113225829Y-114122891D01*
X112995297Y-114218145D01*
X112818765Y-114394369D01*
X112723109Y-114624735D01*
X112722891Y-114874171D01*
X112815375Y-115098000D01*
X111255165Y-115098000D01*
X111326891Y-114925265D01*
X111327109Y-114675829D01*
X111231855Y-114445297D01*
X111055631Y-114268765D01*
X110825265Y-114173109D01*
X110575829Y-114172891D01*
X110345297Y-114268145D01*
X110168765Y-114444369D01*
X110073109Y-114674735D01*
X110072891Y-114924171D01*
X110144716Y-115098000D01*
X101266514Y-115098000D01*
X100384257Y-114215743D01*
X100333406Y-114181765D01*
X100333406Y-114024171D01*
X114072891Y-114024171D01*
X114168145Y-114254703D01*
X114344369Y-114431235D01*
X114574735Y-114526891D01*
X114744736Y-114527040D01*
X114818145Y-114704703D01*
X114994369Y-114881235D01*
X115224735Y-114976891D01*
X115474171Y-114977109D01*
X115704703Y-114881855D01*
X115881235Y-114705631D01*
X115976891Y-114475265D01*
X115977109Y-114225829D01*
X115881855Y-113995297D01*
X115705631Y-113818765D01*
X115634361Y-113789171D01*
X117101891Y-113789171D01*
X117197145Y-114019703D01*
X117373369Y-114196235D01*
X117603735Y-114291891D01*
X117853171Y-114292109D01*
X118083703Y-114196855D01*
X118260235Y-114020631D01*
X118355891Y-113790265D01*
X118356036Y-113624171D01*
X126072891Y-113624171D01*
X126168145Y-113854703D01*
X126344369Y-114031235D01*
X126574735Y-114126891D01*
X126824171Y-114127109D01*
X127054703Y-114031855D01*
X127231235Y-113855631D01*
X127326891Y-113625265D01*
X127327109Y-113375829D01*
X127231855Y-113145297D01*
X127055631Y-112968765D01*
X126825265Y-112873109D01*
X126575829Y-112872891D01*
X126345297Y-112968145D01*
X126168765Y-113144369D01*
X126073109Y-113374735D01*
X126072891Y-113624171D01*
X118356036Y-113624171D01*
X118356109Y-113540829D01*
X118260855Y-113310297D01*
X118084631Y-113133765D01*
X117854265Y-113038109D01*
X117604829Y-113037891D01*
X117374297Y-113133145D01*
X117197765Y-113309369D01*
X117102109Y-113539735D01*
X117101891Y-113789171D01*
X115634361Y-113789171D01*
X115475265Y-113723109D01*
X115305264Y-113722960D01*
X115231855Y-113545297D01*
X115055631Y-113368765D01*
X114825265Y-113273109D01*
X114575829Y-113272891D01*
X114345297Y-113368145D01*
X114168765Y-113544369D01*
X114073109Y-113774735D01*
X114072891Y-114024171D01*
X100333406Y-114024171D01*
X100333406Y-113500000D01*
X100327000Y-113465954D01*
X100327000Y-112574171D01*
X113722891Y-112574171D01*
X113818145Y-112804703D01*
X113994369Y-112981235D01*
X114224735Y-113076891D01*
X114474171Y-113077109D01*
X114704703Y-112981855D01*
X114762487Y-112924171D01*
X123472891Y-112924171D01*
X123568145Y-113154703D01*
X123744369Y-113331235D01*
X123974735Y-113426891D01*
X124224171Y-113427109D01*
X124454703Y-113331855D01*
X124550012Y-113236713D01*
X124644369Y-113331235D01*
X124874735Y-113426891D01*
X125124171Y-113427109D01*
X125354703Y-113331855D01*
X125531235Y-113155631D01*
X125626891Y-112925265D01*
X125627109Y-112675829D01*
X125531855Y-112445297D01*
X125410941Y-112324171D01*
X132872891Y-112324171D01*
X132968145Y-112554703D01*
X133144369Y-112731235D01*
X133374735Y-112826891D01*
X133624171Y-112827109D01*
X133854703Y-112731855D01*
X134031235Y-112555631D01*
X134126891Y-112325265D01*
X134127109Y-112075829D01*
X134105765Y-112024171D01*
X136172891Y-112024171D01*
X136268145Y-112254703D01*
X136444369Y-112431235D01*
X136674735Y-112526891D01*
X136924171Y-112527109D01*
X137154703Y-112431855D01*
X137331235Y-112255631D01*
X137426891Y-112025265D01*
X137426891Y-112024171D01*
X138772891Y-112024171D01*
X138868145Y-112254703D01*
X139044369Y-112431235D01*
X139274735Y-112526891D01*
X139524171Y-112527109D01*
X139754703Y-112431855D01*
X139931235Y-112255631D01*
X140026891Y-112025265D01*
X140027109Y-111775829D01*
X139931855Y-111545297D01*
X139755631Y-111368765D01*
X139525265Y-111273109D01*
X139275829Y-111272891D01*
X139045297Y-111368145D01*
X138868765Y-111544369D01*
X138773109Y-111774735D01*
X138772891Y-112024171D01*
X137426891Y-112024171D01*
X137427109Y-111775829D01*
X137331855Y-111545297D01*
X137155631Y-111368765D01*
X136925265Y-111273109D01*
X136675829Y-111272891D01*
X136445297Y-111368145D01*
X136268765Y-111544369D01*
X136173109Y-111774735D01*
X136172891Y-112024171D01*
X134105765Y-112024171D01*
X134031855Y-111845297D01*
X133855631Y-111668765D01*
X133625265Y-111573109D01*
X133375829Y-111572891D01*
X133145297Y-111668145D01*
X132968765Y-111844369D01*
X132873109Y-112074735D01*
X132872891Y-112324171D01*
X125410941Y-112324171D01*
X125355631Y-112268765D01*
X125125265Y-112173109D01*
X124875829Y-112172891D01*
X124645297Y-112268145D01*
X124549988Y-112363287D01*
X124455631Y-112268765D01*
X124225265Y-112173109D01*
X123975829Y-112172891D01*
X123745297Y-112268145D01*
X123568765Y-112444369D01*
X123473109Y-112674735D01*
X123472891Y-112924171D01*
X114762487Y-112924171D01*
X114881235Y-112805631D01*
X114976891Y-112575265D01*
X114977109Y-112325829D01*
X114881855Y-112095297D01*
X114705631Y-111918765D01*
X114475265Y-111823109D01*
X114225829Y-111822891D01*
X113995297Y-111918145D01*
X113818765Y-112094369D01*
X113723109Y-112324735D01*
X113722891Y-112574171D01*
X100327000Y-112574171D01*
X100327000Y-110531633D01*
X100333406Y-110500000D01*
X100333406Y-110024171D01*
X124972891Y-110024171D01*
X125068145Y-110254703D01*
X125244369Y-110431235D01*
X125474735Y-110526891D01*
X125724171Y-110527109D01*
X125954703Y-110431855D01*
X125999924Y-110386713D01*
X126044369Y-110431235D01*
X126274735Y-110526891D01*
X126524171Y-110527109D01*
X126754703Y-110431855D01*
X126852229Y-110334499D01*
X127074735Y-110426891D01*
X127324171Y-110427109D01*
X127554703Y-110331855D01*
X127731235Y-110155631D01*
X127826891Y-109925265D01*
X127827109Y-109675829D01*
X127731855Y-109445297D01*
X127555631Y-109268765D01*
X127325265Y-109173109D01*
X127075829Y-109172891D01*
X126845297Y-109268145D01*
X126747771Y-109365501D01*
X126525265Y-109273109D01*
X126275829Y-109272891D01*
X126045297Y-109368145D01*
X126000076Y-109413287D01*
X125955631Y-109368765D01*
X125725265Y-109273109D01*
X125475829Y-109272891D01*
X125245297Y-109368145D01*
X125068765Y-109544369D01*
X124973109Y-109774735D01*
X124972891Y-110024171D01*
X100333406Y-110024171D01*
X100333406Y-109818235D01*
X100384257Y-109784257D01*
X100973021Y-109195493D01*
X100972891Y-109344171D01*
X101068145Y-109574703D01*
X101244369Y-109751235D01*
X101474735Y-109846891D01*
X101724171Y-109847109D01*
X101954703Y-109751855D01*
X101980891Y-109725713D01*
X102006369Y-109751235D01*
X102236735Y-109846891D01*
X102486171Y-109847109D01*
X102716703Y-109751855D01*
X102742891Y-109725713D01*
X102768369Y-109751235D01*
X102998735Y-109846891D01*
X103248171Y-109847109D01*
X103478703Y-109751855D01*
X103504891Y-109725713D01*
X103530369Y-109751235D01*
X103760735Y-109846891D01*
X104010171Y-109847109D01*
X104240703Y-109751855D01*
X104417235Y-109575631D01*
X104512891Y-109345265D01*
X104513109Y-109095829D01*
X104433020Y-108902000D01*
X112684404Y-108902000D01*
X112657109Y-108967735D01*
M02*
