G04 #@! TF.FileFunction,Copper,L4,Bot,Mixed*
%FSLAX46Y46*%
G04 Gerber Fmt 4.6, Leading zero omitted, Abs format (unit mm)*
G04 Created by KiCad (PCBNEW 4.0.3-stable) date 09/19/16 00:04:08*
%MOMM*%
%LPD*%
G01*
G04 APERTURE LIST*
%ADD10C,0.100000*%
%ADD11R,3.000000X1.900000*%
%ADD12R,2.000000X2.000000*%
%ADD13C,0.600000*%
%ADD14C,0.500000*%
%ADD15C,0.250000*%
%ADD16C,0.254000*%
%ADD17C,0.200000*%
G04 APERTURE END LIST*
D10*
D11*
X98500000Y-109550000D03*
X98500000Y-114450000D03*
D12*
X145900000Y-110500000D03*
X145900000Y-113500000D03*
D13*
X142100000Y-115000000D03*
X133500000Y-112200000D03*
X114700000Y-113900000D03*
X124100000Y-112800000D03*
X110700000Y-114800000D03*
X126700000Y-113500000D03*
X101600000Y-113538000D03*
X101600000Y-112776000D03*
X101600000Y-112014000D03*
X101600000Y-111252000D03*
X101600000Y-110490000D03*
X122936000Y-109791500D03*
X106045000Y-114300000D03*
X136498857Y-114064952D03*
X135600000Y-109400000D03*
X144600000Y-115000000D03*
X145400000Y-115000000D03*
X146200000Y-115000000D03*
X127300000Y-114100000D03*
X114800000Y-109800000D03*
X134100000Y-114400000D03*
X139400000Y-111900000D03*
X136800000Y-111900000D03*
X127200000Y-109800000D03*
X103886000Y-109220000D03*
X103124000Y-109220000D03*
X102362000Y-109220000D03*
X101600000Y-109220000D03*
X136900000Y-109400000D03*
X139700000Y-109500000D03*
X126400000Y-109900000D03*
X142000000Y-109450000D03*
X125600000Y-109900000D03*
X113350000Y-114750000D03*
X115350000Y-114350000D03*
X130950000Y-115000000D03*
X114350000Y-112450000D03*
X117729000Y-113665000D03*
X125000000Y-112800000D03*
X131124215Y-109026215D03*
X113284000Y-109093000D03*
D14*
X124100000Y-112800000D02*
X124100000Y-113500000D01*
X124100000Y-113500000D02*
X123800000Y-113800000D01*
X119700000Y-113800000D02*
X118800000Y-112900000D01*
X123800000Y-113800000D02*
X119700000Y-113800000D01*
X136400000Y-115000000D02*
X133600000Y-112200000D01*
X136400000Y-115000000D02*
X142100000Y-115000000D01*
X133600000Y-112200000D02*
X133500000Y-112200000D01*
X126700000Y-113500000D02*
X126900000Y-113300000D01*
X126900000Y-113300000D02*
X132400000Y-113300000D01*
X132400000Y-113300000D02*
X133500000Y-112200000D01*
X115700000Y-112900000D02*
X114700000Y-113900000D01*
X118800000Y-112900000D02*
X115700000Y-112900000D01*
X126700000Y-113500000D02*
X125600000Y-113500000D01*
X124400000Y-113800000D02*
X124100000Y-113500000D01*
X125300000Y-113800000D02*
X124400000Y-113800000D01*
X125600000Y-113500000D02*
X125300000Y-113800000D01*
X111600000Y-113900000D02*
X110700000Y-114800000D01*
X111600000Y-113900000D02*
X114700000Y-113900000D01*
D15*
X145400000Y-115000000D02*
X144600000Y-115000000D01*
X145900000Y-114700000D02*
X146200000Y-115000000D01*
X145900000Y-114700000D02*
X145900000Y-113500000D01*
X100203000Y-110363000D02*
X99313000Y-110363000D01*
X99313000Y-110363000D02*
X98500000Y-109550000D01*
X100466000Y-110100000D02*
X100203000Y-110363000D01*
X100720000Y-110100000D02*
X100466000Y-110100000D01*
X102362000Y-109220000D02*
X103124000Y-109220000D01*
X100720000Y-110100000D02*
X101600000Y-109220000D01*
X123918497Y-111624999D02*
X134675001Y-111624999D01*
X114080997Y-109668001D02*
X114523999Y-109224999D01*
X114523999Y-109224999D02*
X121518497Y-109224999D01*
X121518497Y-109224999D02*
X123918497Y-111624999D01*
X134675001Y-111624999D02*
X136900000Y-109400000D01*
X136900000Y-109400000D02*
X138000000Y-110500000D01*
X138000000Y-110500000D02*
X139500000Y-110500000D01*
X139500000Y-110500000D02*
X145900000Y-110500000D01*
D16*
G36*
X146698000Y-115198000D02*
X143927000Y-115198000D01*
X143927000Y-113269716D01*
X144936982Y-112627000D01*
X146698000Y-112627000D01*
X146698000Y-115198000D01*
X146698000Y-115198000D01*
G37*
X146698000Y-115198000D02*
X143927000Y-115198000D01*
X143927000Y-113269716D01*
X144936982Y-112627000D01*
X146698000Y-112627000D01*
X146698000Y-115198000D01*
D17*
G36*
X112818005Y-108781043D02*
X112734096Y-108983118D01*
X112733905Y-109201922D01*
X112817461Y-109404143D01*
X112972043Y-109558995D01*
X113174118Y-109642904D01*
X113392922Y-109643095D01*
X113595143Y-109559539D01*
X113749995Y-109404957D01*
X113833904Y-109202882D01*
X113834095Y-108984078D01*
X113750539Y-108781857D01*
X113743694Y-108775000D01*
X130632998Y-108775000D01*
X130574311Y-108916333D01*
X130574120Y-109135137D01*
X130657676Y-109337358D01*
X130812258Y-109492210D01*
X131014333Y-109576119D01*
X131233137Y-109576310D01*
X131396228Y-109508922D01*
X135049905Y-109508922D01*
X135133461Y-109711143D01*
X135288043Y-109865995D01*
X135490118Y-109949904D01*
X135708922Y-109950095D01*
X135911143Y-109866539D01*
X136065995Y-109711957D01*
X136108778Y-109608922D01*
X139149905Y-109608922D01*
X139233461Y-109811143D01*
X139388043Y-109965995D01*
X139590118Y-110049904D01*
X139808922Y-110050095D01*
X140011143Y-109966539D01*
X140165995Y-109811957D01*
X140249904Y-109609882D01*
X140249948Y-109558922D01*
X141449905Y-109558922D01*
X141533461Y-109761143D01*
X141688043Y-109915995D01*
X141890118Y-109999904D01*
X142108922Y-110000095D01*
X142311143Y-109916539D01*
X142465995Y-109761957D01*
X142549904Y-109559882D01*
X142550095Y-109341078D01*
X142466539Y-109138857D01*
X142311957Y-108984005D01*
X142109882Y-108900096D01*
X141891078Y-108899905D01*
X141688857Y-108983461D01*
X141534005Y-109138043D01*
X141450096Y-109340118D01*
X141449905Y-109558922D01*
X140249948Y-109558922D01*
X140250095Y-109391078D01*
X140166539Y-109188857D01*
X140011957Y-109034005D01*
X139809882Y-108950096D01*
X139591078Y-108949905D01*
X139388857Y-109033461D01*
X139234005Y-109188043D01*
X139150096Y-109390118D01*
X139149905Y-109608922D01*
X136108778Y-109608922D01*
X136149904Y-109509882D01*
X136150095Y-109291078D01*
X136066539Y-109088857D01*
X135911957Y-108934005D01*
X135709882Y-108850096D01*
X135491078Y-108849905D01*
X135288857Y-108933461D01*
X135134005Y-109088043D01*
X135050096Y-109290118D01*
X135049905Y-109508922D01*
X131396228Y-109508922D01*
X131435358Y-109492754D01*
X131590210Y-109338172D01*
X131674119Y-109136097D01*
X131674310Y-108917293D01*
X131615516Y-108775000D01*
X146725000Y-108775000D01*
X146725000Y-112200000D01*
X144800000Y-112200000D01*
X144744530Y-112216795D01*
X143544530Y-113016795D01*
X143516529Y-113044931D01*
X143500000Y-113100000D01*
X143500000Y-115225000D01*
X142602103Y-115225000D01*
X142649904Y-115109882D01*
X142650095Y-114891078D01*
X142566539Y-114688857D01*
X142411957Y-114534005D01*
X142209882Y-114450096D01*
X141991078Y-114449905D01*
X141869839Y-114500000D01*
X136841546Y-114500000D01*
X136964852Y-114376909D01*
X137048761Y-114174834D01*
X137048952Y-113956030D01*
X136965396Y-113753809D01*
X136810814Y-113598957D01*
X136608739Y-113515048D01*
X136389935Y-113514857D01*
X136187714Y-113598413D01*
X136032862Y-113752995D01*
X135982173Y-113875067D01*
X134116028Y-112008922D01*
X136249905Y-112008922D01*
X136333461Y-112211143D01*
X136488043Y-112365995D01*
X136690118Y-112449904D01*
X136908922Y-112450095D01*
X137111143Y-112366539D01*
X137265995Y-112211957D01*
X137349904Y-112009882D01*
X137349904Y-112008922D01*
X138849905Y-112008922D01*
X138933461Y-112211143D01*
X139088043Y-112365995D01*
X139290118Y-112449904D01*
X139508922Y-112450095D01*
X139711143Y-112366539D01*
X139865995Y-112211957D01*
X139949904Y-112009882D01*
X139950095Y-111791078D01*
X139866539Y-111588857D01*
X139711957Y-111434005D01*
X139509882Y-111350096D01*
X139291078Y-111349905D01*
X139088857Y-111433461D01*
X138934005Y-111588043D01*
X138850096Y-111790118D01*
X138849905Y-112008922D01*
X137349904Y-112008922D01*
X137350095Y-111791078D01*
X137266539Y-111588857D01*
X137111957Y-111434005D01*
X136909882Y-111350096D01*
X136691078Y-111349905D01*
X136488857Y-111433461D01*
X136334005Y-111588043D01*
X136250096Y-111790118D01*
X136249905Y-112008922D01*
X134116028Y-112008922D01*
X133953553Y-111846447D01*
X133865409Y-111787551D01*
X133811957Y-111734005D01*
X133609882Y-111650096D01*
X133391078Y-111649905D01*
X133188857Y-111733461D01*
X133034005Y-111888043D01*
X132983698Y-112009196D01*
X132192894Y-112800000D01*
X126900000Y-112800000D01*
X126708658Y-112838060D01*
X126643686Y-112881474D01*
X126546447Y-112946446D01*
X126509127Y-112983767D01*
X126469839Y-113000000D01*
X125600000Y-113000000D01*
X125504604Y-113018975D01*
X125549904Y-112909882D01*
X125550095Y-112691078D01*
X125466539Y-112488857D01*
X125311957Y-112334005D01*
X125109882Y-112250096D01*
X124891078Y-112249905D01*
X124688857Y-112333461D01*
X124549893Y-112472182D01*
X124411957Y-112334005D01*
X124209882Y-112250096D01*
X123991078Y-112249905D01*
X123788857Y-112333461D01*
X123634005Y-112488043D01*
X123550096Y-112690118D01*
X123549905Y-112908922D01*
X123600000Y-113030161D01*
X123600000Y-113292894D01*
X123592894Y-113300000D01*
X119907107Y-113300000D01*
X119153553Y-112546447D01*
X118991342Y-112438060D01*
X118800000Y-112400000D01*
X115700000Y-112400000D01*
X115508658Y-112438060D01*
X115490647Y-112450095D01*
X115346447Y-112546446D01*
X114509128Y-113383766D01*
X114469839Y-113400000D01*
X111600000Y-113400000D01*
X111408658Y-113438060D01*
X111246446Y-113546447D01*
X110509128Y-114283766D01*
X110388857Y-114333461D01*
X110234005Y-114488043D01*
X110150096Y-114690118D01*
X110149905Y-114908922D01*
X110233461Y-115111143D01*
X110347119Y-115225000D01*
X101213909Y-115225000D01*
X100397831Y-114408922D01*
X105494905Y-114408922D01*
X105578461Y-114611143D01*
X105733043Y-114765995D01*
X105935118Y-114849904D01*
X106153922Y-114850095D01*
X106356143Y-114766539D01*
X106510995Y-114611957D01*
X106594904Y-114409882D01*
X106595095Y-114191078D01*
X106511539Y-113988857D01*
X106356957Y-113834005D01*
X106154882Y-113750096D01*
X105936078Y-113749905D01*
X105733857Y-113833461D01*
X105579005Y-113988043D01*
X105495096Y-114190118D01*
X105494905Y-114408922D01*
X100397831Y-114408922D01*
X100300000Y-114311092D01*
X100300000Y-113100000D01*
X100292121Y-113061094D01*
X100269727Y-113028319D01*
X100236346Y-113006839D01*
X100200000Y-113000000D01*
X97275000Y-113000000D01*
X97275000Y-110598922D01*
X101049905Y-110598922D01*
X101133461Y-110801143D01*
X101203182Y-110870986D01*
X101134005Y-110940043D01*
X101050096Y-111142118D01*
X101049905Y-111360922D01*
X101133461Y-111563143D01*
X101203182Y-111632986D01*
X101134005Y-111702043D01*
X101050096Y-111904118D01*
X101049905Y-112122922D01*
X101133461Y-112325143D01*
X101203182Y-112394986D01*
X101134005Y-112464043D01*
X101050096Y-112666118D01*
X101049905Y-112884922D01*
X101133461Y-113087143D01*
X101203182Y-113156986D01*
X101134005Y-113226043D01*
X101050096Y-113428118D01*
X101049905Y-113646922D01*
X101133461Y-113849143D01*
X101288043Y-114003995D01*
X101490118Y-114087904D01*
X101708922Y-114088095D01*
X101911143Y-114004539D01*
X102065995Y-113849957D01*
X102149904Y-113647882D01*
X102150095Y-113429078D01*
X102066539Y-113226857D01*
X101996818Y-113157014D01*
X102065995Y-113087957D01*
X102149904Y-112885882D01*
X102150095Y-112667078D01*
X102105406Y-112558922D01*
X113799905Y-112558922D01*
X113883461Y-112761143D01*
X114038043Y-112915995D01*
X114240118Y-112999904D01*
X114458922Y-113000095D01*
X114661143Y-112916539D01*
X114815995Y-112761957D01*
X114899904Y-112559882D01*
X114900095Y-112341078D01*
X114816539Y-112138857D01*
X114661957Y-111984005D01*
X114459882Y-111900096D01*
X114241078Y-111899905D01*
X114038857Y-111983461D01*
X113884005Y-112138043D01*
X113800096Y-112340118D01*
X113799905Y-112558922D01*
X102105406Y-112558922D01*
X102066539Y-112464857D01*
X101996818Y-112395014D01*
X102065995Y-112325957D01*
X102149904Y-112123882D01*
X102150095Y-111905078D01*
X102066539Y-111702857D01*
X101996818Y-111633014D01*
X102065995Y-111563957D01*
X102149904Y-111361882D01*
X102150095Y-111143078D01*
X102066539Y-110940857D01*
X101996818Y-110871014D01*
X102065995Y-110801957D01*
X102149904Y-110599882D01*
X102150095Y-110381078D01*
X102066539Y-110178857D01*
X101911957Y-110024005D01*
X101709882Y-109940096D01*
X101491078Y-109939905D01*
X101288857Y-110023461D01*
X101134005Y-110178043D01*
X101050096Y-110380118D01*
X101049905Y-110598922D01*
X97275000Y-110598922D01*
X97275000Y-109908922D01*
X114249905Y-109908922D01*
X114333461Y-110111143D01*
X114488043Y-110265995D01*
X114690118Y-110349904D01*
X114908922Y-110350095D01*
X115111143Y-110266539D01*
X115265995Y-110111957D01*
X115349904Y-109909882D01*
X115349912Y-109900422D01*
X122385905Y-109900422D01*
X122469461Y-110102643D01*
X122624043Y-110257495D01*
X122826118Y-110341404D01*
X123044922Y-110341595D01*
X123247143Y-110258039D01*
X123401995Y-110103457D01*
X123441249Y-110008922D01*
X125049905Y-110008922D01*
X125133461Y-110211143D01*
X125288043Y-110365995D01*
X125490118Y-110449904D01*
X125708922Y-110450095D01*
X125911143Y-110366539D01*
X126000019Y-110277818D01*
X126088043Y-110365995D01*
X126290118Y-110449904D01*
X126508922Y-110450095D01*
X126711143Y-110366539D01*
X126850019Y-110227905D01*
X126888043Y-110265995D01*
X127090118Y-110349904D01*
X127308922Y-110350095D01*
X127511143Y-110266539D01*
X127665995Y-110111957D01*
X127749904Y-109909882D01*
X127750095Y-109691078D01*
X127666539Y-109488857D01*
X127511957Y-109334005D01*
X127309882Y-109250096D01*
X127091078Y-109249905D01*
X126888857Y-109333461D01*
X126749981Y-109472095D01*
X126711957Y-109434005D01*
X126509882Y-109350096D01*
X126291078Y-109349905D01*
X126088857Y-109433461D01*
X125999981Y-109522182D01*
X125911957Y-109434005D01*
X125709882Y-109350096D01*
X125491078Y-109349905D01*
X125288857Y-109433461D01*
X125134005Y-109588043D01*
X125050096Y-109790118D01*
X125049905Y-110008922D01*
X123441249Y-110008922D01*
X123485904Y-109901382D01*
X123486095Y-109682578D01*
X123402539Y-109480357D01*
X123247957Y-109325505D01*
X123045882Y-109241596D01*
X122827078Y-109241405D01*
X122624857Y-109324961D01*
X122470005Y-109479543D01*
X122386096Y-109681618D01*
X122385905Y-109900422D01*
X115349912Y-109900422D01*
X115350095Y-109691078D01*
X115266539Y-109488857D01*
X115111957Y-109334005D01*
X114909882Y-109250096D01*
X114691078Y-109249905D01*
X114488857Y-109333461D01*
X114334005Y-109488043D01*
X114250096Y-109690118D01*
X114249905Y-109908922D01*
X97275000Y-109908922D01*
X97275000Y-109775000D01*
X100100000Y-109775000D01*
X100205238Y-109754067D01*
X100294454Y-109694454D01*
X101213909Y-108775000D01*
X112824059Y-108775000D01*
X112818005Y-108781043D01*
X112818005Y-108781043D01*
G37*
X112818005Y-108781043D02*
X112734096Y-108983118D01*
X112733905Y-109201922D01*
X112817461Y-109404143D01*
X112972043Y-109558995D01*
X113174118Y-109642904D01*
X113392922Y-109643095D01*
X113595143Y-109559539D01*
X113749995Y-109404957D01*
X113833904Y-109202882D01*
X113834095Y-108984078D01*
X113750539Y-108781857D01*
X113743694Y-108775000D01*
X130632998Y-108775000D01*
X130574311Y-108916333D01*
X130574120Y-109135137D01*
X130657676Y-109337358D01*
X130812258Y-109492210D01*
X131014333Y-109576119D01*
X131233137Y-109576310D01*
X131396228Y-109508922D01*
X135049905Y-109508922D01*
X135133461Y-109711143D01*
X135288043Y-109865995D01*
X135490118Y-109949904D01*
X135708922Y-109950095D01*
X135911143Y-109866539D01*
X136065995Y-109711957D01*
X136108778Y-109608922D01*
X139149905Y-109608922D01*
X139233461Y-109811143D01*
X139388043Y-109965995D01*
X139590118Y-110049904D01*
X139808922Y-110050095D01*
X140011143Y-109966539D01*
X140165995Y-109811957D01*
X140249904Y-109609882D01*
X140249948Y-109558922D01*
X141449905Y-109558922D01*
X141533461Y-109761143D01*
X141688043Y-109915995D01*
X141890118Y-109999904D01*
X142108922Y-110000095D01*
X142311143Y-109916539D01*
X142465995Y-109761957D01*
X142549904Y-109559882D01*
X142550095Y-109341078D01*
X142466539Y-109138857D01*
X142311957Y-108984005D01*
X142109882Y-108900096D01*
X141891078Y-108899905D01*
X141688857Y-108983461D01*
X141534005Y-109138043D01*
X141450096Y-109340118D01*
X141449905Y-109558922D01*
X140249948Y-109558922D01*
X140250095Y-109391078D01*
X140166539Y-109188857D01*
X140011957Y-109034005D01*
X139809882Y-108950096D01*
X139591078Y-108949905D01*
X139388857Y-109033461D01*
X139234005Y-109188043D01*
X139150096Y-109390118D01*
X139149905Y-109608922D01*
X136108778Y-109608922D01*
X136149904Y-109509882D01*
X136150095Y-109291078D01*
X136066539Y-109088857D01*
X135911957Y-108934005D01*
X135709882Y-108850096D01*
X135491078Y-108849905D01*
X135288857Y-108933461D01*
X135134005Y-109088043D01*
X135050096Y-109290118D01*
X135049905Y-109508922D01*
X131396228Y-109508922D01*
X131435358Y-109492754D01*
X131590210Y-109338172D01*
X131674119Y-109136097D01*
X131674310Y-108917293D01*
X131615516Y-108775000D01*
X146725000Y-108775000D01*
X146725000Y-112200000D01*
X144800000Y-112200000D01*
X144744530Y-112216795D01*
X143544530Y-113016795D01*
X143516529Y-113044931D01*
X143500000Y-113100000D01*
X143500000Y-115225000D01*
X142602103Y-115225000D01*
X142649904Y-115109882D01*
X142650095Y-114891078D01*
X142566539Y-114688857D01*
X142411957Y-114534005D01*
X142209882Y-114450096D01*
X141991078Y-114449905D01*
X141869839Y-114500000D01*
X136841546Y-114500000D01*
X136964852Y-114376909D01*
X137048761Y-114174834D01*
X137048952Y-113956030D01*
X136965396Y-113753809D01*
X136810814Y-113598957D01*
X136608739Y-113515048D01*
X136389935Y-113514857D01*
X136187714Y-113598413D01*
X136032862Y-113752995D01*
X135982173Y-113875067D01*
X134116028Y-112008922D01*
X136249905Y-112008922D01*
X136333461Y-112211143D01*
X136488043Y-112365995D01*
X136690118Y-112449904D01*
X136908922Y-112450095D01*
X137111143Y-112366539D01*
X137265995Y-112211957D01*
X137349904Y-112009882D01*
X137349904Y-112008922D01*
X138849905Y-112008922D01*
X138933461Y-112211143D01*
X139088043Y-112365995D01*
X139290118Y-112449904D01*
X139508922Y-112450095D01*
X139711143Y-112366539D01*
X139865995Y-112211957D01*
X139949904Y-112009882D01*
X139950095Y-111791078D01*
X139866539Y-111588857D01*
X139711957Y-111434005D01*
X139509882Y-111350096D01*
X139291078Y-111349905D01*
X139088857Y-111433461D01*
X138934005Y-111588043D01*
X138850096Y-111790118D01*
X138849905Y-112008922D01*
X137349904Y-112008922D01*
X137350095Y-111791078D01*
X137266539Y-111588857D01*
X137111957Y-111434005D01*
X136909882Y-111350096D01*
X136691078Y-111349905D01*
X136488857Y-111433461D01*
X136334005Y-111588043D01*
X136250096Y-111790118D01*
X136249905Y-112008922D01*
X134116028Y-112008922D01*
X133953553Y-111846447D01*
X133865409Y-111787551D01*
X133811957Y-111734005D01*
X133609882Y-111650096D01*
X133391078Y-111649905D01*
X133188857Y-111733461D01*
X133034005Y-111888043D01*
X132983698Y-112009196D01*
X132192894Y-112800000D01*
X126900000Y-112800000D01*
X126708658Y-112838060D01*
X126643686Y-112881474D01*
X126546447Y-112946446D01*
X126509127Y-112983767D01*
X126469839Y-113000000D01*
X125600000Y-113000000D01*
X125504604Y-113018975D01*
X125549904Y-112909882D01*
X125550095Y-112691078D01*
X125466539Y-112488857D01*
X125311957Y-112334005D01*
X125109882Y-112250096D01*
X124891078Y-112249905D01*
X124688857Y-112333461D01*
X124549893Y-112472182D01*
X124411957Y-112334005D01*
X124209882Y-112250096D01*
X123991078Y-112249905D01*
X123788857Y-112333461D01*
X123634005Y-112488043D01*
X123550096Y-112690118D01*
X123549905Y-112908922D01*
X123600000Y-113030161D01*
X123600000Y-113292894D01*
X123592894Y-113300000D01*
X119907107Y-113300000D01*
X119153553Y-112546447D01*
X118991342Y-112438060D01*
X118800000Y-112400000D01*
X115700000Y-112400000D01*
X115508658Y-112438060D01*
X115490647Y-112450095D01*
X115346447Y-112546446D01*
X114509128Y-113383766D01*
X114469839Y-113400000D01*
X111600000Y-113400000D01*
X111408658Y-113438060D01*
X111246446Y-113546447D01*
X110509128Y-114283766D01*
X110388857Y-114333461D01*
X110234005Y-114488043D01*
X110150096Y-114690118D01*
X110149905Y-114908922D01*
X110233461Y-115111143D01*
X110347119Y-115225000D01*
X101213909Y-115225000D01*
X100397831Y-114408922D01*
X105494905Y-114408922D01*
X105578461Y-114611143D01*
X105733043Y-114765995D01*
X105935118Y-114849904D01*
X106153922Y-114850095D01*
X106356143Y-114766539D01*
X106510995Y-114611957D01*
X106594904Y-114409882D01*
X106595095Y-114191078D01*
X106511539Y-113988857D01*
X106356957Y-113834005D01*
X106154882Y-113750096D01*
X105936078Y-113749905D01*
X105733857Y-113833461D01*
X105579005Y-113988043D01*
X105495096Y-114190118D01*
X105494905Y-114408922D01*
X100397831Y-114408922D01*
X100300000Y-114311092D01*
X100300000Y-113100000D01*
X100292121Y-113061094D01*
X100269727Y-113028319D01*
X100236346Y-113006839D01*
X100200000Y-113000000D01*
X97275000Y-113000000D01*
X97275000Y-110598922D01*
X101049905Y-110598922D01*
X101133461Y-110801143D01*
X101203182Y-110870986D01*
X101134005Y-110940043D01*
X101050096Y-111142118D01*
X101049905Y-111360922D01*
X101133461Y-111563143D01*
X101203182Y-111632986D01*
X101134005Y-111702043D01*
X101050096Y-111904118D01*
X101049905Y-112122922D01*
X101133461Y-112325143D01*
X101203182Y-112394986D01*
X101134005Y-112464043D01*
X101050096Y-112666118D01*
X101049905Y-112884922D01*
X101133461Y-113087143D01*
X101203182Y-113156986D01*
X101134005Y-113226043D01*
X101050096Y-113428118D01*
X101049905Y-113646922D01*
X101133461Y-113849143D01*
X101288043Y-114003995D01*
X101490118Y-114087904D01*
X101708922Y-114088095D01*
X101911143Y-114004539D01*
X102065995Y-113849957D01*
X102149904Y-113647882D01*
X102150095Y-113429078D01*
X102066539Y-113226857D01*
X101996818Y-113157014D01*
X102065995Y-113087957D01*
X102149904Y-112885882D01*
X102150095Y-112667078D01*
X102105406Y-112558922D01*
X113799905Y-112558922D01*
X113883461Y-112761143D01*
X114038043Y-112915995D01*
X114240118Y-112999904D01*
X114458922Y-113000095D01*
X114661143Y-112916539D01*
X114815995Y-112761957D01*
X114899904Y-112559882D01*
X114900095Y-112341078D01*
X114816539Y-112138857D01*
X114661957Y-111984005D01*
X114459882Y-111900096D01*
X114241078Y-111899905D01*
X114038857Y-111983461D01*
X113884005Y-112138043D01*
X113800096Y-112340118D01*
X113799905Y-112558922D01*
X102105406Y-112558922D01*
X102066539Y-112464857D01*
X101996818Y-112395014D01*
X102065995Y-112325957D01*
X102149904Y-112123882D01*
X102150095Y-111905078D01*
X102066539Y-111702857D01*
X101996818Y-111633014D01*
X102065995Y-111563957D01*
X102149904Y-111361882D01*
X102150095Y-111143078D01*
X102066539Y-110940857D01*
X101996818Y-110871014D01*
X102065995Y-110801957D01*
X102149904Y-110599882D01*
X102150095Y-110381078D01*
X102066539Y-110178857D01*
X101911957Y-110024005D01*
X101709882Y-109940096D01*
X101491078Y-109939905D01*
X101288857Y-110023461D01*
X101134005Y-110178043D01*
X101050096Y-110380118D01*
X101049905Y-110598922D01*
X97275000Y-110598922D01*
X97275000Y-109908922D01*
X114249905Y-109908922D01*
X114333461Y-110111143D01*
X114488043Y-110265995D01*
X114690118Y-110349904D01*
X114908922Y-110350095D01*
X115111143Y-110266539D01*
X115265995Y-110111957D01*
X115349904Y-109909882D01*
X115349912Y-109900422D01*
X122385905Y-109900422D01*
X122469461Y-110102643D01*
X122624043Y-110257495D01*
X122826118Y-110341404D01*
X123044922Y-110341595D01*
X123247143Y-110258039D01*
X123401995Y-110103457D01*
X123441249Y-110008922D01*
X125049905Y-110008922D01*
X125133461Y-110211143D01*
X125288043Y-110365995D01*
X125490118Y-110449904D01*
X125708922Y-110450095D01*
X125911143Y-110366539D01*
X126000019Y-110277818D01*
X126088043Y-110365995D01*
X126290118Y-110449904D01*
X126508922Y-110450095D01*
X126711143Y-110366539D01*
X126850019Y-110227905D01*
X126888043Y-110265995D01*
X127090118Y-110349904D01*
X127308922Y-110350095D01*
X127511143Y-110266539D01*
X127665995Y-110111957D01*
X127749904Y-109909882D01*
X127750095Y-109691078D01*
X127666539Y-109488857D01*
X127511957Y-109334005D01*
X127309882Y-109250096D01*
X127091078Y-109249905D01*
X126888857Y-109333461D01*
X126749981Y-109472095D01*
X126711957Y-109434005D01*
X126509882Y-109350096D01*
X126291078Y-109349905D01*
X126088857Y-109433461D01*
X125999981Y-109522182D01*
X125911957Y-109434005D01*
X125709882Y-109350096D01*
X125491078Y-109349905D01*
X125288857Y-109433461D01*
X125134005Y-109588043D01*
X125050096Y-109790118D01*
X125049905Y-110008922D01*
X123441249Y-110008922D01*
X123485904Y-109901382D01*
X123486095Y-109682578D01*
X123402539Y-109480357D01*
X123247957Y-109325505D01*
X123045882Y-109241596D01*
X122827078Y-109241405D01*
X122624857Y-109324961D01*
X122470005Y-109479543D01*
X122386096Y-109681618D01*
X122385905Y-109900422D01*
X115349912Y-109900422D01*
X115350095Y-109691078D01*
X115266539Y-109488857D01*
X115111957Y-109334005D01*
X114909882Y-109250096D01*
X114691078Y-109249905D01*
X114488857Y-109333461D01*
X114334005Y-109488043D01*
X114250096Y-109690118D01*
X114249905Y-109908922D01*
X97275000Y-109908922D01*
X97275000Y-109775000D01*
X100100000Y-109775000D01*
X100205238Y-109754067D01*
X100294454Y-109694454D01*
X101213909Y-108775000D01*
X112824059Y-108775000D01*
X112818005Y-108781043D01*
M02*
