G04 #@! TF.FileFunction,Copper,L3,Inr,Signal*
%FSLAX46Y46*%
G04 Gerber Fmt 4.6, Leading zero omitted, Abs format (unit mm)*
G04 Created by KiCad (PCBNEW 4.0.3-stable) date 09/19/16 00:04:08*
%MOMM*%
%LPD*%
G01*
G04 APERTURE LIST*
%ADD10C,0.100000*%
%ADD11R,3.000000X1.900000*%
%ADD12C,0.600000*%
%ADD13C,0.250000*%
G04 APERTURE END LIST*
D10*
D11*
X98500000Y-109550000D03*
X98500000Y-114450000D03*
D12*
X142100000Y-115000000D03*
X133500000Y-112200000D03*
X114700000Y-113900000D03*
X124100000Y-112800000D03*
X110700000Y-114800000D03*
X126700000Y-113500000D03*
X101600000Y-113538000D03*
X101600000Y-112776000D03*
X101600000Y-112014000D03*
X101600000Y-111252000D03*
X101600000Y-110490000D03*
X122936000Y-109791500D03*
X106045000Y-114300000D03*
X136498857Y-114064952D03*
X135600000Y-109400000D03*
X144600000Y-115000000D03*
X145400000Y-115000000D03*
X146200000Y-115000000D03*
X127300000Y-114100000D03*
X114800000Y-109800000D03*
X134100000Y-114400000D03*
X139400000Y-111900000D03*
X136800000Y-111900000D03*
X127200000Y-109800000D03*
X103886000Y-109220000D03*
X103124000Y-109220000D03*
X102362000Y-109220000D03*
X101600000Y-109220000D03*
X136900000Y-109400000D03*
X139700000Y-109500000D03*
X126400000Y-109900000D03*
X142000000Y-109450000D03*
X125600000Y-109900000D03*
X113350000Y-114750000D03*
X115350000Y-114350000D03*
X130950000Y-115000000D03*
X114350000Y-112450000D03*
X117729000Y-113665000D03*
X125000000Y-112800000D03*
X131124215Y-109026215D03*
X113284000Y-109093000D03*
D13*
X125500000Y-111900000D02*
X132000000Y-111900000D01*
X136800000Y-111900000D02*
X135700000Y-113000000D01*
X133100000Y-113000000D02*
X132000000Y-111900000D01*
X133200000Y-113000000D02*
X133100000Y-113000000D01*
X135700000Y-113000000D02*
X133200000Y-113000000D01*
X124900000Y-111200000D02*
X124900000Y-111300000D01*
X124900000Y-111300000D02*
X125500000Y-111900000D01*
X127200000Y-109800000D02*
X126600000Y-109200000D01*
X125300000Y-109200000D02*
X124900000Y-109600000D01*
X126600000Y-109200000D02*
X125300000Y-109200000D01*
X124900000Y-109600000D02*
X124900000Y-111200000D01*
X126400000Y-109900000D02*
X126950000Y-110450000D01*
X138750000Y-110450000D02*
X139700000Y-109500000D01*
X126950000Y-110450000D02*
X138750000Y-110450000D01*
X125600000Y-109900000D02*
X125600000Y-110800000D01*
X140350000Y-111100000D02*
X142000000Y-109450000D01*
X139800000Y-111100000D02*
X140350000Y-111100000D01*
X125900000Y-111100000D02*
X139800000Y-111100000D01*
X125600000Y-110800000D02*
X125900000Y-111100000D01*
X114950000Y-114750000D02*
X113350000Y-114750000D01*
X115350000Y-114350000D02*
X114950000Y-114750000D01*
X130950000Y-115000000D02*
X116900000Y-115000000D01*
X116900000Y-115000000D02*
X114350000Y-112450000D01*
X117729000Y-113665000D02*
X118028999Y-113964999D01*
X118028999Y-113964999D02*
X123835001Y-113964999D01*
X123835001Y-113964999D02*
X123881000Y-113919000D01*
X123881000Y-113919000D02*
X125000000Y-112800000D01*
X130891001Y-108793001D02*
X130884012Y-108799990D01*
X130884012Y-108799990D02*
X113590988Y-108799990D01*
X113590988Y-108799990D02*
X113583999Y-108793001D01*
X113284000Y-109093000D02*
X113583999Y-108793001D01*
X130891001Y-108793001D02*
X131124215Y-109026215D01*
M02*
